<?xml version="1.0" encoding="UTF-8" standalone="no"?>
<!-- Created with Inkscape (http://www.inkscape.org/) -->

<svg
   width="104.35766mm"
   height="63.5mm"
   viewBox="0 0 104.35766 63.5"
   version="1.1"
   id="svg14089"
   xml:space="preserve"
   inkscape:version="1.2.2 (732a01da63, 2022-12-09)"
   sodipodi:docname="aim-logo-white.svg"
   xmlns:inkscape="http://www.inkscape.org/namespaces/inkscape"
   xmlns:sodipodi="http://sodipodi.sourceforge.net/DTD/sodipodi-0.dtd"
   xmlns="http://www.w3.org/2000/svg"
   xmlns:svg="http://www.w3.org/2000/svg"><sodipodi:namedview
     id="namedview14091"
     pagecolor="#ffffff"
     bordercolor="#000000"
     borderopacity="0.25"
     inkscape:showpageshadow="2"
     inkscape:pageopacity="0.0"
     inkscape:pagecheckerboard="0"
     inkscape:deskcolor="#d1d1d1"
     inkscape:document-units="mm"
     showgrid="false"
     inkscape:zoom="0.72515432"
     inkscape:cx="119.28495"
     inkscape:cy="188.23579"
     inkscape:window-width="1920"
     inkscape:window-height="1001"
     inkscape:window-x="-9"
     inkscape:window-y="-9"
     inkscape:window-maximized="1"
     inkscape:current-layer="layer1" /><defs
     id="defs14086"><clipPath
       clipPathUnits="userSpaceOnUse"
       id="clipPath14230"><path
         d="M 0,0 H 296 V 181 H 0 Z"
         id="path14228" /></clipPath><clipPath
       clipPathUnits="userSpaceOnUse"
       id="clipPath14302"><path
         d="m 276.216,52.181 h -31.731 c -0.004,0 -0.007,0.001 -0.009,0.001 h -10.143 c -0.004,0 -0.008,-0.001 -0.01,-0.001 H 218.38 c -0.004,0 -0.008,0.001 -0.01,0.001 h -14.273 c -0.004,0 -0.008,-0.001 -0.01,-0.001 h -16.133 c -0.004,0 -0.006,0.001 -0.01,0.001 h -17.279 c -0.002,0 -0.006,-0.001 -0.01,-0.001 H 2.014 C 0.901,52.181 0,51.279 0,50.165 0,49.052 0.901,48.15 2.014,48.15 h 177.844 c 0.004,0 0.008,-10e-4 0.01,-10e-4 h 27.422 c 0.002,0 0.006,10e-4 0.01,10e-4 h 68.541 c 0.002,0 0.006,0.001 0.01,0.001 h 0.365 c 1.111,0 2.013,0.901 2.013,2.014 0,1.113 -0.902,2.016 -2.013,2.016"
         id="path14300" /></clipPath><clipPath
       clipPathUnits="userSpaceOnUse"
       id="clipPath14308"><path
         d="M 0.06,0.05999756 H 295.877 V 180.06 H 0.06 Z"
         id="path14306" /></clipPath><linearGradient
       x1="0"
       y1="0"
       x2="1"
       y2="0"
       gradientUnits="userSpaceOnUse"
       gradientTransform="matrix(278.229,0,0,-278.229,0,50.165)"
       spreadMethod="pad"
       id="linearGradient14316"><stop
         style="stop-opacity:1;stop-color:#231f20"
         offset="0"
         id="stop14312" /><stop
         style="stop-opacity:1;stop-color:#ffffff"
         offset="1"
         id="stop14314" /></linearGradient><clipPath
       clipPathUnits="userSpaceOnUse"
       id="clipPath14326"><path
         d="M 0.06,0.05999756 H 295.877 V 180.06 H 0.06 Z"
         id="path14324" /></clipPath></defs><g
     inkscape:label="Layer 1"
     inkscape:groupmode="layer"
     id="layer1"
     transform="translate(-19.699548,-98.871625)"><g
       id="g14216"
       inkscape:label="logo_sk_2727U (2)"
       transform="matrix(0.35277777,0,0,-0.35277777,19.678381,162.39279)"
       style="fill:#ffffff;fill-opacity:1;stroke:none"><g
         id="g14218"
         style="fill:#ffffff;fill-opacity:1;stroke:none" /><g
         id="g14220"
         style="fill:#ffffff;fill-opacity:1;stroke:none" /><g
         id="g14222"
         style="fill:#ffffff;fill-opacity:1;stroke:none"><g
           id="g14224"
           style="fill:#ffffff;fill-opacity:1;stroke:none"><g
             id="g14226"
             clip-path="url(#clipPath14230)"
             style="fill:#ffffff;fill-opacity:1;stroke:none"><g
               id="g14232"
               style="fill:#ffffff;fill-opacity:1;stroke:none" /><g
               id="g14234"
               style="fill:#ffffff;fill-opacity:1;stroke:none"><path
                 d="m 71.512,175.64 h -0.068 c -1.088,-2.923 -2.175,-5.881 -3.196,-8.669 h 6.25601 z m 3.332,-18.188 v 0.952 c 2.142,0.272 2.44801,0.544 2.006,1.87 -0.442,1.326 -1.122,3.161 -1.87,5.235 h -7.24099 c -0.54401,-1.53 -1.054,-2.957 -1.49601,-4.386 -0.748,-2.141 -0.442,-2.481 2.10801,-2.719 v -0.952 H 60.974 v 0.952 c 2.141,0.306 2.617,0.51 3.80701,3.502 l 7.03699,17.848 1.054,0.306 c 2.108,-5.848 4.386,-12.307 6.56201,-18.222 1.08699,-2.924 1.529,-3.23 3.73899,-3.434 v -0.952 h -8.329"
                 style="fill:#ffffff;fill-opacity:1;fill-rule:nonzero;stroke:none"
                 id="path14236" /><path
                 d="m 101.014,157.452 v 0.806 c 1.829,0.186 2.17,0.31 2.17,2.512 v 5.178 c 0,2.201 -0.775,3.596 -2.729,3.596 -1.116,0 -2.294,-0.62 -3.473,-1.612 0.06301,-0.372 0.094,-0.713 0.094,-1.302 v -6.047 c 0,-1.953 0.278,-2.139 1.984,-2.325 v -0.806 h -6.635 v 0.806 c 1.92201,0.186 2.20101,0.341 2.20101,2.388 v 5.333 c 0,2.294 -0.80601,3.565 -2.69701,3.565 -1.241,0 -2.45,-0.837 -3.38,-1.612 v -7.286 c 0,-2.016 0.248,-2.202 1.767,-2.388 v -0.806 h -6.542 v 0.806 c 2.046,0.186 2.326,0.372 2.326,2.388 v 6.418 c 0,1.984 -0.093,2.14 -1.89199,2.418 v 0.714 c 1.364,0.248 2.946,0.651 4.31,1.271 v -2.512 c 0.651,0.434 1.334,0.993 2.263,1.582 0.807,0.496 1.55099,0.836 2.543,0.836 1.48799,0 2.82099,-0.929 3.442,-2.542 0.89899,0.682 1.79799,1.271 2.57299,1.737 0.651,0.433 1.457,0.805 2.326,0.805 2.418,0 3.938,-1.705 3.938,-4.743 v -5.984 c 0,-2.078 0.248,-2.202 2.015,-2.388 v -0.806 h -6.604"
                 style="fill:#ffffff;fill-opacity:1;fill-rule:nonzero;stroke:none"
                 id="path14238" /><path
                 d="m 115.178,170.227 c -1.395,0 -2.76,-1.303 -3.225,-3.815 1.736,0 3.442,0.032 5.24,0.094 0.558,0 0.745,0.186 0.745,0.62 0.031,1.612 -1.024,3.101 -2.729,3.101 z m 5.271,-10.14 c -1.953,-2.449 -4.093,-3.007 -5.054,-3.007 -3.814,0 -6.046,3.101 -6.046,6.604 0,2.14 0.775,4.031 2.047,5.426 1.271,1.427 2.945,2.263 4.526,2.263 h 0.031 c 2.573,0 4.651,-2.294 4.651,-4.712 0,-0.621 -0.155,-0.869 -0.713,-0.993 -0.527,-0.092 -4.403,-0.402 -8.093,-0.527 0.031,-4.216 2.45,-5.953 4.62,-5.953 1.24,0 2.419,0.496 3.535,1.551 l 0.496,-0.652"
                 style="fill:#ffffff;fill-opacity:1;fill-rule:nonzero;stroke:none"
                 id="path14240" /><path
                 d="m 127.051,168.087 c 0.929,1.55 2.263,3.286 3.751,3.286 1.054,0 1.799,-0.805 1.799,-1.549 0,-0.62 -0.404,-1.241 -0.993,-1.52 -0.372,-0.155 -0.651,-0.124 -0.837,0.062 -0.434,0.465 -0.806,0.651 -1.302,0.651 -0.806,0 -1.798,-0.93 -2.481,-2.666 v -5.674 c 0,-2.047 0.156,-2.233 2.543,-2.419 v -0.806 h -7.132 v 0.806 c 1.923,0.186 2.14,0.372 2.14,2.419 v 6.418 c 0,2.046 -0.155,2.17 -1.922,2.418 v 0.683 c 1.519,0.248 2.883,0.62 4.371,1.271 v -3.38 h 0.063"
                 style="fill:#ffffff;fill-opacity:1;fill-rule:nonzero;stroke:none"
                 id="path14242" /><path
                 d="m 135.698,175.653 c 0,0.929 0.744,1.612 1.582,1.612 0.868,0 1.55,-0.683 1.55,-1.612 0,-0.838 -0.682,-1.582 -1.581,-1.582 -0.807,0 -1.551,0.744 -1.551,1.582 z m -1.643,-18.201 v 0.806 c 1.954,0.186 2.171,0.372 2.171,2.481 v 6.418 c 0,1.891 -0.093,2.047 -1.954,2.325 v 0.745 c 1.582,0.248 3.039,0.65 4.403,1.209 v -10.697 c 0,-2.109 0.217,-2.295 2.201,-2.481 v -0.806 h -6.821"
                 style="fill:#ffffff;fill-opacity:1;fill-rule:nonzero;stroke:none"
                 id="path14244" /><path
                 d="m 154.021,160.243 c -1.364,-1.799 -3.442,-3.163 -5.271,-3.163 -3.907,0 -6.201,3.163 -6.201,6.48 0,2.388 1.023,4.465 3.1,6.077 1.613,1.24 3.473,1.736 4.651,1.736 h 0.031 c 1.24,0 2.264,-0.402 2.76,-0.805 0.403,-0.341 0.496,-0.62 0.496,-0.962 0,-0.651 -0.682,-1.333 -1.024,-1.333 -0.154,0 -0.309,0.093 -0.588,0.341 -0.931,0.868 -2.016,1.271 -3.101,1.271 -2.047,0 -3.845,-1.705 -3.845,-4.961 0,-4.309 2.946,-5.736 4.682,-5.736 1.333,0 2.356,0.372 3.783,1.706 l 0.527,-0.651"
                 style="fill:#ffffff;fill-opacity:1;fill-rule:nonzero;stroke:none"
                 id="path14246" /><path
                 d="m 163.103,164.893 c -0.651,-0.341 -2.139,-0.992 -2.79,-1.302 -1.21,-0.558 -1.892,-1.147 -1.892,-2.263 0,-1.613 1.24,-2.388 2.201,-2.388 0.807,0.031 1.892,0.558 2.481,1.117 z m 2.263,-7.813 c -0.465,0 -1.116,0.279 -1.457,0.589 -0.403,0.434 -0.59,0.868 -0.744,1.395 -1.24,-0.837 -2.728,-1.984 -3.659,-1.984 -2.201,0 -3.721,1.83 -3.721,3.783 0,1.519 0.807,2.48 2.512,3.069 1.86,0.62 4.124,1.458 4.806,2.016 v 0.558 c 0,2.232 -1.054,3.503 -2.605,3.503 -0.62,0 -1.085,-0.248 -1.395,-0.62 -0.403,-0.403 -0.682,-1.085 -0.93,-2.015 -0.124,-0.527 -0.465,-0.744 -0.9,-0.744 -0.557,0 -1.364,0.62 -1.364,1.333 0,0.465 0.404,0.806 0.992,1.241 0.869,0.62 2.884,1.829 4.652,2.169 0.929,0 1.86,-0.278 2.542,-0.836 1.086,-0.9 1.395,-2.171 1.395,-3.783 v -5.767 c 0,-1.396 0.558,-1.861 1.085,-1.861 0.372,0 0.807,0.156 1.116,0.341 l 0.311,-0.805 -2.636,-1.582"
                 style="fill:#ffffff;fill-opacity:1;fill-rule:nonzero;stroke:none"
                 id="path14248" /><path
                 d="m 177.673,157.452 v 0.806 c 1.83,0.186 2.047,0.434 2.047,2.573 v 5.179 c 0,2.139 -0.744,3.534 -2.823,3.534 -1.24,0 -2.449,-0.775 -3.378,-1.581 v -7.286 c 0,-2.109 0.185,-2.233 2.015,-2.419 v -0.806 h -6.728 v 0.806 c 2.108,0.217 2.263,0.372 2.263,2.419 v 6.418 c 0,1.984 -0.186,2.077 -1.861,2.387 v 0.714 c 1.488,0.279 2.946,0.651 4.311,1.271 v -2.481 c 0.62,0.466 1.301,0.93 2.077,1.458 0.868,0.557 1.675,0.929 2.573,0.929 2.449,0 4,-1.705 4,-4.712 v -5.984 c 0,-2.109 0.155,-2.233 1.953,-2.419 v -0.806 h -6.449"
                 style="fill:#ffffff;fill-opacity:1;fill-rule:nonzero;stroke:none"
                 id="path14250" /><path
                 d="m 193.192,157.452 v 0.952 c 2.787,0.204 3.06,0.408 3.06,3.298 V 175.3 c 0,2.89 -0.273,3.094 -3.06,3.298 v 0.952 h 9.009 v -0.952 c -2.787,-0.204 -3.059,-0.408 -3.059,-3.298 v -13.598 c 0,-2.924 0.272,-3.094 3.059,-3.298 v -0.952 h -9.009"
                 style="fill:#ffffff;fill-opacity:1;fill-rule:nonzero;stroke:none"
                 id="path14252" /><path
                 d="m 213.261,157.452 v 0.806 c 1.83,0.186 2.047,0.434 2.047,2.573 v 5.179 c 0,2.139 -0.745,3.534 -2.823,3.534 -1.24,0 -2.449,-0.775 -3.379,-1.581 v -7.286 c 0,-2.109 0.186,-2.233 2.016,-2.419 v -0.806 h -6.728 v 0.806 c 2.108,0.217 2.263,0.372 2.263,2.419 v 6.418 c 0,1.984 -0.186,2.077 -1.861,2.387 v 0.714 c 1.488,0.279 2.946,0.651 4.31,1.271 v -2.481 c 0.621,0.466 1.302,0.93 2.078,1.458 0.868,0.557 1.674,0.929 2.573,0.929 2.449,0 4,-1.705 4,-4.712 v -5.984 c 0,-2.109 0.155,-2.233 1.953,-2.419 v -0.806 h -6.449"
                 style="fill:#ffffff;fill-opacity:1;fill-rule:nonzero;stroke:none"
                 id="path14254" /><path
                 d="m 229.319,167.343 c -0.59,1.829 -1.674,3.07 -3.194,3.07 -1.178,0 -2.015,-0.931 -2.015,-2.14 0,-1.364 1.241,-2.109 2.635,-2.697 2.326,-0.961 3.907,-2.078 3.907,-4.217 0,-2.822 -2.635,-4.279 -5.116,-4.279 -1.581,0 -3.008,0.589 -3.565,1.054 -0.218,0.434 -0.496,2.543 -0.496,3.659 l 0.805,0.155 c 0.559,-2.046 1.953,-3.845 3.815,-3.845 1.146,0 2.201,0.868 2.201,2.171 0,1.364 -0.9,2.108 -2.449,2.821 -1.862,0.868 -3.876,1.892 -3.876,4.279 0,2.17 1.86,3.999 4.713,3.999 1.27,0.032 2.108,-0.278 2.758,-0.526 0.248,-0.714 0.59,-2.543 0.683,-3.318 l -0.806,-0.186"
                 style="fill:#ffffff;fill-opacity:1;fill-rule:nonzero;stroke:none"
                 id="path14256" /><path
                 d="m 238.558,157.483 c -0.528,-0.279 -1.024,-0.403 -1.303,-0.403 -1.953,0 -3.039,1.24 -3.039,3.69 v 9.022 h -2.139 l -0.124,0.31 0.837,0.899 h 1.426 v 2.264 l 2.015,2.046 0.435,-0.062 v -4.248 h 3.503 c 0.279,-0.309 0.186,-0.992 -0.186,-1.209 h -3.317 v -7.968 c 0,-2.512 1.022,-2.977 1.798,-2.977 0.775,0 1.488,0.311 1.923,0.527 l 0.278,-0.806 -2.107,-1.085"
                 style="fill:#ffffff;fill-opacity:1;fill-rule:nonzero;stroke:none"
                 id="path14258" /><path
                 d="m 243.671,175.653 c 0,0.929 0.744,1.612 1.581,1.612 0.868,0 1.55,-0.683 1.55,-1.612 0,-0.838 -0.682,-1.582 -1.581,-1.582 -0.806,0 -1.55,0.744 -1.55,1.582 z m -1.644,-18.201 v 0.806 c 1.953,0.186 2.171,0.372 2.171,2.481 v 6.418 c 0,1.891 -0.094,2.047 -1.954,2.325 v 0.745 c 1.581,0.248 3.039,0.65 4.403,1.209 v -10.697 c 0,-2.109 0.217,-2.295 2.202,-2.481 v -0.806 h -6.822"
                 style="fill:#ffffff;fill-opacity:1;fill-rule:nonzero;stroke:none"
                 id="path14260" /><path
                 d="m 256.103,157.483 c -0.528,-0.279 -1.024,-0.403 -1.303,-0.403 -1.953,0 -3.039,1.24 -3.039,3.69 v 9.022 h -2.139 l -0.124,0.31 0.837,0.899 h 1.426 v 2.264 l 2.015,2.046 0.435,-0.062 v -4.248 h 3.503 c 0.279,-0.309 0.186,-0.992 -0.186,-1.209 h -3.317 v -7.968 c 0,-2.512 1.022,-2.977 1.798,-2.977 0.775,0 1.488,0.311 1.923,0.527 l 0.278,-0.806 -2.107,-1.085"
                 style="fill:#ffffff;fill-opacity:1;fill-rule:nonzero;stroke:none"
                 id="path14262" /><path
                 d="m 274.177,158.196 c -0.682,-0.093 -1.55,-0.279 -2.387,-0.496 -0.807,-0.217 -1.582,-0.465 -2.171,-0.62 l -0.185,0.186 v 2.201 c -0.714,-0.527 -1.427,-1.085 -2.295,-1.612 -0.9,-0.527 -1.55,-0.775 -2.388,-0.775 -2.077,0 -3.844,1.271 -3.844,4.62 v 6.077 c 0,1.643 -0.248,1.799 -1.023,1.984 l -0.868,0.187 v 0.713 c 0.651,0.031 1.395,0.124 2.232,0.216 0.837,0.124 1.674,0.248 2.201,0.342 -0.093,-0.962 -0.093,-2.419 -0.093,-4.527 v -4.186 c 0,-2.728 1.333,-3.472 2.729,-3.472 1.116,0 2.294,0.464 3.349,1.488 v 7.224 c 0,1.674 -0.28,1.86 -1.303,2.015 l -1.116,0.187 v 0.713 c 0.838,0.031 1.891,0.124 2.791,0.248 0.868,0.092 1.612,0.216 2.077,0.31 v -10.356 c 0,-1.551 0.248,-1.768 1.427,-1.829 l 0.867,-0.063 v -0.775"
                 style="fill:#ffffff;fill-opacity:1;fill-rule:nonzero;stroke:none"
                 id="path14264" /><path
                 d="m 281.337,157.483 c -0.527,-0.279 -1.024,-0.403 -1.303,-0.403 -1.953,0 -3.039,1.24 -3.039,3.69 v 9.022 h -2.139 l -0.124,0.31 0.837,0.899 h 1.426 v 2.264 l 2.016,2.046 0.434,-0.062 v -4.248 h 3.503 c 0.28,-0.309 0.187,-0.992 -0.185,-1.209 h -3.318 v -7.968 c 0,-2.512 1.023,-2.977 1.798,-2.977 0.776,0 1.488,0.311 1.923,0.527 l 0.278,-0.806 -2.107,-1.085"
                 style="fill:#ffffff;fill-opacity:1;fill-rule:nonzero;stroke:none"
                 id="path14266" /><path
                 d="m 290.451,170.227 c -1.395,0 -2.76,-1.303 -3.224,-3.815 1.736,0 3.441,0.032 5.239,0.094 0.558,0 0.744,0.186 0.744,0.62 0.031,1.612 -1.022,3.101 -2.729,3.101 z m 5.271,-10.14 c -1.953,-2.449 -4.093,-3.007 -5.054,-3.007 -3.814,0 -6.046,3.101 -6.046,6.604 0,2.14 0.775,4.031 2.046,5.426 1.271,1.427 2.946,2.263 4.527,2.263 h 0.031 c 2.574,0 4.651,-2.294 4.651,-4.712 0,-0.621 -0.155,-0.869 -0.713,-0.993 -0.527,-0.092 -4.403,-0.402 -8.093,-0.527 0.032,-4.216 2.45,-5.953 4.62,-5.953 1.241,0 2.418,0.496 3.535,1.551 l 0.496,-0.652"
                 style="fill:#ffffff;fill-opacity:1;fill-rule:nonzero;stroke:none"
                 id="path14268" /><path
                 d="m 103.228,131.82 c -1.271,0 -2.512,-1.644 -2.512,-5.209 0,-3.815 1.21,-6.822 3.163,-6.822 1.178,0 2.418,0.775 2.418,5.333 0,4.31 -1.085,6.698 -3.038,6.698 z m 0.465,1.209 c 4.31,0 7.038,-3.256 7.038,-6.977 0,-4.992 -3.565,-7.473 -7.193,-7.473 -4.868,0 -7.255,3.536 -7.255,6.916 0,4.991 3.937,7.534 7.379,7.534 h 0.031"
                 style="fill:#ffffff;fill-opacity:1;fill-rule:nonzero;stroke:none"
                 id="path14270" /><path
                 d="m 115.968,132.347 c 0.496,2.387 1.272,4.619 2.667,6.139 1.488,1.612 3.318,2.48 4.558,2.48 1.147,0 1.953,-0.775 1.922,-1.364 -0.031,-0.527 -0.496,-1.116 -0.837,-1.364 -0.279,-0.186 -0.558,-0.217 -0.806,0.031 -0.682,0.744 -1.334,1.178 -1.954,1.178 -1.085,0 -1.953,-1.302 -2.883,-7.1 h 3.534 l -0.651,-1.023 -3.131,-0.28 c -0.558,-3.317 -0.899,-5.301 -1.613,-8.744 -1.116,-5.302 -2.325,-7.564 -4.092,-9.363 -1.365,-1.396 -2.636,-1.892 -3.473,-1.892 -0.93,0 -1.984,0.652 -1.984,1.365 0,0.464 0.434,1.023 0.899,1.395 0.248,0.217 0.434,0.187 0.62,0 0.496,-0.465 1.457,-0.837 2.047,-0.837 0.496,0 0.96,0.248 1.271,0.651 0.341,0.465 1.022,1.736 2.015,7.535 0.713,4.278 1.147,6.883 1.643,9.922 h -2.542 l -0.094,0.34 0.962,0.931 h 1.922"
                 style="fill:#ffffff;fill-opacity:1;fill-rule:nonzero;stroke:none"
                 id="path14272" /><path
                 d="m 153.232,118.953 v 0.951 c 2.753,0.272 2.89,0.442 2.856,4.046 l -0.103,13.87 h -0.134 l -8.296,-18.63 h -0.68 l -7.615,18.154 h -0.068 l -0.51,-9.688 c -0.136,-2.788 -0.136,-4.285 -0.102,-5.645 0.068,-1.631 0.884,-1.869 3.128,-2.107 v -0.951 h -7.922 v 0.951 c 1.972,0.238 2.652,0.612 2.89,2.04 0.17,1.19 0.374,2.685 0.646,6.221 l 0.476,7.071 c 0.306,4.42 0.136,4.556 -2.958,4.862 v 0.952 h 5.576 l 7.751,-16.998 7.854,16.998 h 5.779 v -0.952 c -2.992,-0.272 -3.231,-0.34 -3.128,-3.842 l 0.34,-12.306 c 0.102,-3.604 0.204,-3.774 3.161,-4.046 v -0.951 h -8.941"
                 style="fill:#ffffff;fill-opacity:1;fill-rule:nonzero;stroke:none"
                 id="path14274" /><path
                 d="m 170.872,126.394 c -0.65,-0.342 -2.139,-0.992 -2.791,-1.303 -1.209,-0.558 -1.891,-1.147 -1.891,-2.263 0,-1.613 1.241,-2.387 2.202,-2.387 0.806,0.03 1.891,0.557 2.48,1.115 z m 2.264,-7.815 c -0.465,0 -1.116,0.28 -1.457,0.59 -0.404,0.434 -0.59,0.868 -0.744,1.395 -1.241,-0.837 -2.729,-1.985 -3.659,-1.985 -2.202,0 -3.72,1.831 -3.72,3.784 0,1.519 0.804,2.48 2.51,3.069 1.861,0.62 4.124,1.458 4.806,2.016 v 0.557 c 0,2.233 -1.055,3.504 -2.603,3.504 -0.622,0 -1.086,-0.248 -1.397,-0.62 -0.402,-0.403 -0.682,-1.085 -0.93,-2.015 -0.124,-0.527 -0.464,-0.744 -0.898,-0.744 -0.559,0 -1.365,0.619 -1.365,1.333 0,0.465 0.403,0.806 0.992,1.241 0.869,0.62 2.884,1.829 4.65,2.169 0.932,0 1.862,-0.278 2.543,-0.836 1.086,-0.9 1.396,-2.17 1.396,-3.784 v -5.766 c 0,-1.396 0.557,-1.861 1.085,-1.861 0.373,0 0.806,0.156 1.117,0.341 l 0.309,-0.805 -2.635,-1.583"
                 style="fill:#ffffff;fill-opacity:1;fill-rule:nonzero;stroke:none"
                 id="path14276" /><path
                 d="m 182.497,118.983 c -0.527,-0.279 -1.023,-0.404 -1.303,-0.404 -1.953,0 -3.038,1.241 -3.038,3.691 v 9.022 h -2.139 l -0.123,0.311 0.835,0.898 h 1.427 v 2.264 l 2.015,2.047 0.435,-0.063 v -4.248 h 3.503 c 0.279,-0.309 0.187,-0.992 -0.186,-1.209 h -3.317 v -7.968 c 0,-2.512 1.023,-2.977 1.797,-2.977 0.776,0 1.489,0.311 1.924,0.527 l 0.278,-0.806 -2.108,-1.085"
                 style="fill:#ffffff;fill-opacity:1;fill-rule:nonzero;stroke:none"
                 id="path14278" /><path
                 d="m 194.37,118.953 v 0.805 c 1.799,0.187 2.047,0.372 2.047,2.388 v 5.146 c 0,2.543 -0.961,3.815 -3.039,3.815 -1.178,0 -2.356,-0.59 -3.225,-1.582 v -7.379 c 0,-1.984 0.155,-2.201 1.985,-2.388 v -0.805 h -6.574 l 0.031,0.805 c 1.861,0.155 2.109,0.341 2.109,2.388 v 14.789 c 0,1.954 -0.062,2.109 -2.109,2.295 v 0.713 c 1.488,0.217 3.349,0.713 4.558,1.086 v -10.418 c 1.086,1.115 2.76,2.262 4.434,2.262 2.512,0.032 4.279,-1.581 4.279,-5.301 v -5.426 c 0,-2.047 0.217,-2.233 2.047,-2.388 v -0.805 h -6.543"
                 style="fill:#ffffff;fill-opacity:1;fill-rule:nonzero;stroke:none"
                 id="path14280" /><path
                 d="m 208.228,131.726 c -1.397,0 -2.76,-1.302 -3.225,-3.814 1.736,0 3.441,0.032 5.24,0.093 0.557,0 0.744,0.187 0.744,0.621 0.03,1.612 -1.023,3.1 -2.728,3.1 z m 5.269,-10.139 c -1.953,-2.449 -4.092,-3.008 -5.053,-3.008 -3.814,0 -6.047,3.102 -6.047,6.605 0,2.14 0.776,4.031 2.047,5.427 1.272,1.426 2.946,2.262 4.528,2.262 h 0.031 c 2.572,0 4.65,-2.294 4.65,-4.712 0,-0.621 -0.156,-0.869 -0.713,-0.993 -0.527,-0.092 -4.404,-0.403 -8.093,-0.526 0.031,-4.217 2.449,-5.953 4.621,-5.953 1.24,0 2.418,0.496 3.533,1.55 l 0.496,-0.652"
                 style="fill:#ffffff;fill-opacity:1;fill-rule:nonzero;stroke:none"
                 id="path14282" /><path
                 d="m 232.501,118.953 v 0.805 c 1.83,0.187 2.172,0.31 2.172,2.512 v 5.178 c 0,2.201 -0.776,3.596 -2.729,3.596 -1.117,0 -2.295,-0.62 -3.472,-1.612 0.06,-0.372 0.091,-0.713 0.091,-1.302 v -6.047 c 0,-1.953 0.28,-2.138 1.985,-2.325 v -0.805 h -6.635 v 0.805 c 1.922,0.187 2.201,0.341 2.201,2.388 v 5.333 c 0,2.294 -0.806,3.565 -2.697,3.565 -1.24,0 -2.449,-0.837 -3.379,-1.612 v -7.286 c 0,-2.016 0.248,-2.201 1.768,-2.388 v -0.805 h -6.543 v 0.805 c 2.047,0.187 2.326,0.372 2.326,2.388 v 6.418 c 0,1.984 -0.094,2.14 -1.893,2.418 v 0.714 c 1.366,0.248 2.946,0.651 4.311,1.27 v -2.511 c 0.65,0.434 1.332,0.993 2.264,1.582 0.804,0.496 1.548,0.836 2.541,0.836 1.488,0 2.822,-0.929 3.443,-2.542 0.898,0.682 1.797,1.272 2.572,1.737 0.652,0.433 1.457,0.805 2.326,0.805 2.418,0 3.938,-1.705 3.938,-4.743 v -5.984 c 0,-2.078 0.248,-2.201 2.015,-2.388 v -0.805 h -6.605"
                 style="fill:#ffffff;fill-opacity:1;fill-rule:nonzero;stroke:none"
                 id="path14284" /><path
                 d="m 248.247,126.394 c -0.65,-0.342 -2.139,-0.992 -2.789,-1.303 -1.209,-0.558 -1.893,-1.147 -1.893,-2.263 0,-1.613 1.241,-2.387 2.202,-2.387 0.806,0.03 1.892,0.557 2.48,1.115 z m 2.264,-7.815 c -0.465,0 -1.115,0.28 -1.457,0.59 -0.403,0.434 -0.588,0.868 -0.744,1.395 -1.241,-0.837 -2.729,-1.985 -3.659,-1.985 -2.201,0 -3.72,1.831 -3.72,3.784 0,1.519 0.806,2.48 2.511,3.069 1.86,0.62 4.123,1.458 4.805,2.016 v 0.557 c 0,2.233 -1.053,3.504 -2.603,3.504 -0.622,0 -1.086,-0.248 -1.395,-0.62 -0.404,-0.403 -0.684,-1.085 -0.932,-2.015 -0.123,-0.527 -0.464,-0.744 -0.898,-0.744 -0.559,0 -1.365,0.619 -1.365,1.333 0,0.465 0.404,0.806 0.992,1.241 0.869,0.62 2.885,1.829 4.652,2.169 0.93,0 1.86,-0.278 2.541,-0.836 1.086,-0.9 1.397,-2.17 1.397,-3.784 v -5.766 c 0,-1.396 0.558,-1.861 1.084,-1.861 0.373,0 0.806,0.156 1.117,0.341 l 0.31,-0.805 -2.636,-1.583"
                 style="fill:#ffffff;fill-opacity:1;fill-rule:nonzero;stroke:none"
                 id="path14286" /><path
                 d="m 259.872,118.983 c -0.527,-0.279 -1.023,-0.404 -1.303,-0.404 -1.953,0 -3.037,1.241 -3.037,3.691 v 9.022 h -2.14 l -0.123,0.311 0.835,0.898 h 1.428 v 2.264 l 2.014,2.047 0.435,-0.063 v -4.248 h 3.504 c 0.278,-0.309 0.186,-0.992 -0.187,-1.209 h -3.317 v -7.968 c 0,-2.512 1.024,-2.977 1.797,-2.977 0.776,0 1.489,0.311 1.924,0.527 l 0.279,-0.806 -2.109,-1.085"
                 style="fill:#ffffff;fill-opacity:1;fill-rule:nonzero;stroke:none"
                 id="path14288" /><path
                 d="m 264.985,137.153 c 0,0.929 0.744,1.612 1.582,1.612 0.868,0 1.551,-0.683 1.551,-1.612 0,-0.837 -0.683,-1.581 -1.582,-1.581 -0.807,0 -1.551,0.744 -1.551,1.581 z m -1.642,-18.2 v 0.805 c 1.953,0.187 2.17,0.372 2.17,2.481 v 6.418 c 0,1.891 -0.094,2.047 -1.953,2.325 v 0.744 c 1.582,0.248 3.039,0.651 4.402,1.21 v -10.697 c 0,-2.109 0.217,-2.294 2.201,-2.481 v -0.805 h -6.82"
                 style="fill:#ffffff;fill-opacity:1;fill-rule:nonzero;stroke:none"
                 id="path14290" /><path
                 d="m 283.308,121.743 c -1.364,-1.798 -3.442,-3.164 -5.27,-3.164 -3.908,0 -6.201,3.164 -6.201,6.481 0,2.388 1.021,4.465 3.1,6.077 1.613,1.24 3.472,1.736 4.65,1.736 h 0.031 c 1.24,0 2.264,-0.403 2.76,-0.805 0.402,-0.342 0.496,-0.62 0.496,-0.961 0,-0.652 -0.682,-1.334 -1.023,-1.334 -0.155,0 -0.311,0.094 -0.588,0.342 -0.932,0.867 -2.016,1.27 -3.102,1.27 -2.047,0 -3.844,-1.705 -3.844,-4.961 0,-4.309 2.946,-5.735 4.682,-5.735 1.332,0 2.355,0.371 3.781,1.705 l 0.528,-0.651"
                 style="fill:#ffffff;fill-opacity:1;fill-rule:nonzero;stroke:none"
                 id="path14292" /><path
                 d="m 292.886,128.843 c -0.59,1.829 -1.674,3.069 -3.194,3.069 -1.177,0 -2.015,-0.93 -2.015,-2.139 0,-1.364 1.24,-2.109 2.635,-2.697 2.326,-0.961 3.908,-2.078 3.908,-4.217 0,-2.822 -2.637,-4.28 -5.117,-4.28 -1.581,0 -3.008,0.59 -3.565,1.055 -0.217,0.434 -0.496,2.543 -0.496,3.658 l 0.805,0.156 c 0.558,-2.046 1.955,-3.845 3.814,-3.845 1.147,0 2.201,0.868 2.201,2.171 0,1.364 -0.898,2.108 -2.449,2.821 -1.859,0.868 -3.875,1.892 -3.875,4.279 0,2.17 1.859,3.999 4.713,3.999 1.271,0.032 2.107,-0.278 2.76,-0.526 0.248,-0.714 0.588,-2.543 0.681,-3.318 l -0.806,-0.186"
                 style="fill:#ffffff;fill-opacity:1;fill-rule:nonzero;stroke:none"
                 id="path14294" /></g><g
               id="g14296"
               style="fill:#ffffff;fill-opacity:1;stroke:none"><g
                 id="g14298"
                 clip-path="url(#clipPath14302)"
                 style="fill:#ffffff;fill-opacity:1;stroke:none"><g
                   id="g14304"
                   clip-path="url(#clipPath14308)"
                   style="fill:#ffffff;fill-opacity:1;stroke:none"><g
                     id="g14310"
                     style="fill:#ffffff;fill-opacity:1;stroke:none"><path
                       d="M 0.06,0.05999756 H 295.877 V 180.06 H 0.06 Z"
                       style="fill:#ffffff;fill-opacity:1;stroke:none"
                       id="path14318" /></g></g></g></g><g
               id="g14320"
               style="fill:#ffffff;fill-opacity:1;stroke:none"><g
                 id="g14322"
                 clip-path="url(#clipPath14326)"
                 style="fill:#ffffff;fill-opacity:1;stroke:none"><path
                   d="m 276.517,43.222 c -0.844,0.727 -2.116,0.633 -2.842,-0.209 l -0.432,-0.498 -0.447,-0.46 -0.397,-0.343 -0.378,-0.267 -0.333,-0.173 -0.085,-0.033 -0.12,-0.038 -0.107,-0.023 -0.016,-0.003 -0.084,-0.01 -0.027,-10e-4 h -0.111 l -0.028,0.003 -0.041,0.004 -0.035,0.007 -0.119,0.027 -0.111,0.036 -0.131,0.051 -0.156,0.076 -0.129,0.075 -0.409,0.289 -0.398,0.352 -0.463,0.477 -0.435,0.514 -0.496,0.654 -0.543,0.783 -0.497,0.775 -0.521,0.868 -0.502,0.875 -0.527,0.954 -0.547,1.025 -0.522,0.998 -1.119,2.159 -0.535,1.04 -0.564,1.078 -0.532,0.993 -0.558,1.016 -0.578,1.016 -0.559,0.929 -0.578,0.912 -0.557,0.818 -0.584,0.79 -0.06,0.077 -0.559,0.687 -0.084,0.094 -0.529,0.572 -0.1,0.101 -0.547,0.511 -0.142,0.121 -0.569,0.445 -0.171,0.117 -0.536,0.334 -0.234,0.127 -0.559,0.251 -0.211,0.083 -0.285,0.092 -0.14,0.038 -0.26,0.064 -0.106,0.024 -0.121,0.02201 -0.099,0.01699 -0.131,0.016 -0.111,0.013 -0.12,0.013 -0.058,0.005 -0.129,0.005 -0.125,0.006 h -0.072 l -0.03,0.002 h -0.041 l -0.031,-0.002 h -0.076 l -0.168,-0.008 -0.02,-0.002 -0.033,-0.001 c -0.031,-10e-4 -0.06,-0.009 -0.09,-0.012 -0.027,-0.002 -0.052,0.002 -0.08,-0.002 v 0.001 l -0.062,-0.007 -0.137,-0.019 -0.144,-0.023 -0.182,-0.033 -0.133,-0.027 -0.264,-0.06699 -0.138,-0.041 -0.26,-0.086 -0.139,-0.054 -0.277,-0.11501 -0.127,-0.058 -0.266,-0.133 -0.111,-0.061 -0.293,-0.169 -0.144,-0.095 -0.522,-0.368 -0.146,-0.112 -0.543,-0.465 -0.121,-0.112 -0.565,-0.568 -0.094,-0.099 -0.529,-0.61 -0.068,-0.082 -0.549,-0.705 -0.057,-0.079 -0.57,-0.808 -0.578,-0.877 -0.592,-0.966 -0.551,-0.952 -0.562,-1.007 -0.584,-1.094 -0.543,-1.048 -0.561,-1.102 -0.525,-1.049 -0.545,-1.092 -0.559,-1.126 -0.527,-1.046 -0.543,-1.073 -0.563,-1.084 -0.523,-0.979 -0.543,-0.98 -0.506,-0.875 -0.517,-0.851 -0.537,-0.825 -0.459,-0.654 -0.51,-0.671 -0.492,-0.58 -0.454,-0.475 -0.416,-0.371 -0.392,-0.296 -0.342,-0.206 -0.346,-0.152 -0.107,-0.033 -0.143,-0.033 -0.056,-0.011 -0.028,-0.004 h -0.002 l -0.082,-0.007 -0.056,-0.004 h -0.002 c -0.002,0 -0.004,0 -0.008,0 h -0.063 l -0.023,0.001 -0.031,0.003 -0.096,0.011 -0.066,0.013 -0.155,0.037 -0.129,0.044 -0.154,0.061 -0.17,0.086 -0.134,0.077 -0.395,0.272 -0.424,0.351 -0.404,0.402 -0.467,0.519 -0.502,0.628 -0.496,0.685 -0.506,0.762 -0.537,0.863 -0.502,0.867 -0.541,0.969 -0.502,0.946 -0.531,1.033 -0.559,1.112 -0.519,1.067 -0.549,1.139 -0.514,1.082 -0.535,1.132 -0.566,1.185 -0.528,1.104 -0.548,1.139 -0.577,1.165 -0.545,1.076 -0.566,1.088 -0.537,0.989 -0.557,0.99 c -0.004,0.008 -0.01,0.012 -0.015,0.02 -0.004,0.008 -0.006,0.018 -0.012,0.026 l -0.565,0.942 -0.556,0.876 -0.586,0.863 -0.047,0.065 -0.57,0.769 -0.063,0.081 -0.539,0.654 -0.074,0.087 -0.561,0.60401 -0.089,0.09299 -0.524,0.498 -0.125,0.108 -0.547,0.442 -0.156,0.11399 -0.564,0.37001 -0.204,0.118 -0.533,0.26801 -0.174,0.07599 -0.252,0.098 -0.115,0.042 -0.267,0.085 -0.129,0.037 -0.252,0.064 -0.131,0.027 -0.141,0.025 -0.185,0.029 -0.094,0.013 -0.137,0.014 -0.123,0.01 -0.086,0.007 -0.076,0.002 c -0.06,0.005 -0.123,0.008 -0.187,0.008 h -0.098 l -0.039,-0.004 h -0.027 l -0.053,-0.002 h -0.016 l -0.156,-0.007 -0.037,-0.002 -0.053,-0.004 -0.06,-0.006 -0.067,-0.006 -0.078,-0.008 -0.16,-0.021 -0.137,-0.021 -0.133,-0.02499 -0.189,-0.042 -0.074,-0.01601 -0.135,-0.033 -0.121,-0.036 -0.268,-0.086 -0.176,-0.06499 -0.517,-0.222 -0.227,-0.11401 -0.537,-0.313 -0.174,-0.11499 -0.56,-0.41101 -0.143,-0.113 -0.525,-0.463 -0.11,-0.104 -0.546,-0.558 c -0.02,-0.02 -0.034,-0.042 -0.051,-0.063 -0.01,-0.011 -0.024,-0.02 -0.035,-0.033 l -0.571,-0.661 -0.07,-0.085 -0.535,-0.694 -0.053,-0.072 -0.555,-0.79 -0.564,-0.867 -0.578,-0.951 -0.588,-1.034 -0.551,-1.022 -0.57,-1.098 -0.586,-1.183 -0.549,-1.142 -0.566,-1.216 -0.534,-1.158 -0.548,-1.219 -0.575,-1.283 -1.086,-2.453 -0.519,-1.169 -0.539,-1.203 -0.557,-1.224 -0.523,-1.127 -0.541,-1.141 -0.559,-1.145 -0.525,-1.036 -0.539,-1.018 -0.504,-0.914 -0.52,-0.881 -0.537,-0.857 -0.461,-0.685 -0.523,-0.708 -0.492,-0.609 -0.453,-0.495 -0.45,-0.43 -0.384,-0.311 -0.374,-0.246 -0.371,-0.189 -0.121,-0.047 -0.14,-0.044 -0.151,-0.033 -0.064,-0.011 -0.045,-0.006 -0.035,-0.004 h -0.002 l -0.01,-10e-4 -0.025,-10e-4 h -0.065 c -0.004,0 -0.008,-0.001 -0.01,-0.001 h -0.056 l -0.033,0.002 h 0.005 l -0.033,0.003 -0.084,0.012 -0.076,0.012 -0.142,0.036 -0.168,0.054 -0.139,0.058 -0.143,0.07 -0.369,0.226 -0.4,0.304 -0.408,0.373 -0.44,0.464 -0.494,0.591 -0.457,0.612 -0.525,0.778 -0.532,0.847 -0.506,0.869 -0.523,0.967 -0.506,0.977 -0.525,1.069 -0.555,1.172 -0.516,1.136 -0.544,1.238 -0.51,1.184 -0.535,1.274 -0.553,1.339 -0.526,1.286 -0.543,1.345 -0.572,1.41 -0.529,1.323 -0.557,1.382 -0.529,1.285 -0.541,1.316 -0.572,1.353 -0.533,1.246 -0.559,1.264 -0.582,1.276 -0.553,1.166 -0.57,1.15701 c -0.004,0.006 -0.008,0.011 -0.012,0.01699 -0.002,0.004 -0.002,0.01001 -0.006,0.015 l -0.523,1.011 -0.572,1.03701 -0.59,1.00899 -0.573,0.905 -0.041,0.065 -0.552,0.80101 -0.573,0.75999 -0.066,0.082 -0.541,0.64201 -0.09,0.1 -0.562,0.582 -0.114,0.11 -0.527,0.46799 -0.15,0.12 -0.551,0.39901 -0.186,0.11999 -0.572,0.32601 -0.232,0.11399 -0.536,0.22 -0.218,0.075 -0.254,0.072 -0.123,0.03001 -0.268,0.05899 -0.158,0.02601 -0.131,0.01699 -0.152,0.018 -0.09,0.01 -0.066,0.005 -0.049,0.004 -0.168,0.006 h -0.028 l -0.082,0.004 h -0.127 l -0.056,-0.004 h -0.031 l -0.174,-0.006 -0.035,-0.004 -0.02,-0.002 0.006,0.002 -0.125,-0.011 -0.106,-0.01 -0.064,-0.01001 -0.154,-0.023 -0.205,-0.035 -0.082,-0.01699 -0.133,-0.029 -0.139,-0.03501 -0.289,-0.086 -0.146,-0.05 -0.28,-0.10499 -0.127,-0.054 -0.256,-0.11901 -0.173,-0.089 -0.555,-0.326 -0.188,-0.125 -0.525,-0.391 -0.148,-0.125 -0.543,-0.491 -0.112,-0.109 -0.564,-0.60099 c -0.018,-0.019 -0.029,-0.04 -0.045,-0.06 -0.016,-0.016 -0.033,-0.029 -0.047,-0.046 l -0.529,-0.647 -0.071,-0.091 -0.55,-0.757 -0.053,-0.076 -0.574,-0.869 -0.043,-0.072 -0.539,-0.89599 -0.592,-1.06701 -0.553,-1.05899 -0.566,-1.165 -0.588,-1.26301 -0.549,-1.248 -0.566,-1.339 -0.53,-1.306 -0.549,-1.393 -0.568,-1.483 -0.535,-1.422 -0.553,-1.507 -0.574,-1.589 -0.539,-1.507 -1.082,-3.05 -0.543,-1.542 -0.565,-1.588 -0.529,-1.478 -0.551,-1.516 -0.57,-1.551 -0.533,-1.426 -0.553,-1.436 -0.519,-1.308 -0.538,-1.315 -0.558,-1.304 -0.522,-1.171 -0.538,-1.142 -0.502,-1.013 -0.518,-0.975 -0.529,-0.92 -0.469,-0.746 -0.494,-0.72 -0.494,-0.641 -0.441,-0.498 -0.438,-0.422 -0.344,-0.271 -0.369,-0.231 -0.122,-0.058 -0.103,-0.042 -0.135,-0.041 -0.03,-0.006 -0.084,-0.017 h -0.012 l -0.036,-0.005 c -0.014,-0.001 -0.027,-0.005 -0.04,-0.006 -0.009,0 -0.018,0.002 -0.027,10e-4 h -0.048 l -0.033,0.003 -0.035,0.002 h -0.011 l -0.055,0.008 -0.025,0.007 -0.046,0.01 -0.043,0.01 -0.13,0.043 -0.096,0.042 -0.151,0.078 -0.326,0.212 -0.379,0.318 -0.429,0.432 -0.428,0.512 -0.475,0.648 -0.518,0.799 -0.483,0.831 -0.543,1.018 -0.494,1.005 -0.515,1.129 -0.548,1.268 -0.511,1.267 -0.538,1.396 -0.563,1.526 -0.524,1.492 -0.554,1.621 -0.522,1.572 -0.537,1.675 -0.563,1.793 -0.529,1.716 -0.551,1.815 -0.518,1.723 c 0,0.001 0,0.001 0,0.002 l -0.541,1.816 -1.087,3.675 -1.121,3.768 -0.537,1.786 -0.558,1.83 -0.527,1.698 -0.549,1.73 -0.567,1.753 -0.539,1.607 -0.555,1.611 -0.583,1.617 -0.549,1.457 -0.574,1.446 -0.538,1.28201 -0.567,1.26699 -0.596,1.224 -0.564,1.071 -0.041,0.07601 -0.555,0.95199 -0.052,0.085 -0.521,0.8 -0.072,0.103 -0.541,0.72901 -0.099,0.122 -0.564,0.64599 -0.13,0.13501 -0.527,0.50199 -0.192,0.16101 -0.552,0.404 -0.188,0.124 -0.256,0.14899 -0.138,0.07201 -0.283,0.13499 -0.196,0.08 -0.286,0.1 -0.08,0.02799 -0.124,0.03702 -0.18,0.04599 -0.136,0.028 -0.21,0.039 -0.085,0.014 -0.066,0.008 -0.118,0.013 -0.118,0.01099 -0.038,10e-4 -0.005,0.002 -0.188,0.008 h -0.157 l -0.031,-0.004 h -0.017 l -0.185,-0.008 -0.031,-0.004 h -0.013 l 0.015,0.002 -0.087,-0.006 -0.1,-0.01001 -0.068,-0.009 -0.126,-0.018 -0.083,-0.015 -0.075,-0.014 -0.199,-0.04399 L 100.03,86.719 99.744,86.62501 99.57201,86.562 99.3,86.44801 99.064,86.328 98.539,86.01701 98.299,85.84801 97.75301,85.409 97.57101,85.23901 97.006,84.652 96.88,84.509 96.34701,83.83601 96.256,83.71201 95.702,82.895 95.63801,82.791 95.119,81.912 95.06901,81.825 94.53201,80.8 94.497,80.73 l -0.56199,-1.183 -0.031,-0.066 -0.525,-1.219 -0.57,-1.423 -0.585,-1.583 L 91.674,73.67 91.108,71.93201 90.577,70.22501 90.02701,68.361 89.457,66.34901 88.922,64.382 88.368,62.274 87.79401,60.021 87.25201,57.847 86.68999,55.537 86.164,53.327 85.616,50.997 85.05,48.549 84.51701,46.233 82.901,39.164 82.341,36.719 81.814,34.438 81.26701,32.097 80.69901,29.706 80.165,27.498 79.61,25.263 79.091,23.218 78.552,21.157 77.992,19.099 77.467,17.247 c 0,-0.002 0,-0.004 -0.001,-0.005 L 76.924,15.419 76.358,13.626 75.831,12.047 75.287,10.533 74.78,9.23 74.277,8.051001 73.745,6.93 73.26701,6.039001 72.785,5.263 72.388,4.73 72.019,4.331 71.703,4.081 71.637,4.044 71.526,4.113 71.44701,4.175 71.098,4.526 70.691,5.066 70.206,5.86 69.742,6.772 69.222,7.955 68.72701,9.231001 68.19801,10.76 67.651,12.506 l -0.519,1.813 -0.538,2.048 -0.56199,2.309 -0.53601,2.334 -0.553,2.579 -0.521,2.572 -0.544,2.811 -0.565,3.067 -0.531,3.016 -0.551,3.254 -0.523,3.178 -0.538,3.401 -0.561,3.646 -0.529,3.519 -0.548,3.746 -0.572,3.971 -0.535,3.805 -0.559,4.018 -0.523,3.821 -0.547,4.01901 L 55.7,83.618 54.088,95.716 53,103.824 l -0.55,4.037 -0.569,4.138 -0.536,3.843 -0.558,3.931 -0.522,3.615 -0.546,3.684 -0.565,3.728 -0.531,3.406 -0.553,3.433 -0.573,3.435 -0.542,3.107 -0.561,3.087 -0.529,2.769 -0.551,2.73 -0.573,2.675 -0.54,2.358 -0.563,2.286 -0.525,1.983 -0.557,1.898 c -0.002,0.008 -0.006,0.014 -0.008,0.021 -0.004,0.013 -0.004,0.027 -0.009,0.04 l -0.564,1.73 -0.023,0.065 -0.528,1.445 -0.034,0.09 -0.551,1.309 -0.053,0.114 -0.571,1.15 -0.083,0.154 -0.538,0.881 -0.133,0.19 -0.554,0.711 -0.18,0.2 -0.285,0.279 -0.151,0.134 -0.258,0.206 -0.21,0.147 -0.288,0.178 -0.181,0.097 -0.128,0.061 -0.158,0.068 -0.138,0.051 -0.192,0.061 -0.149,0.041 -0.128,0.028 -0.075,0.015 -0.135,0.024 -0.149,0.018 -0.035,0.002 -0.046,0.004 c -0.073,0.009 -0.148,0.013 -0.227,0.013 h -0.106 l -0.023,-0.002 h -0.011 l -0.19,-0.011 -0.03,-0.002 -0.027,-0.002 -0.012,-0.002 -0.145,-0.016 -0.032,-0.004 -0.088,-0.017 -0.073,-0.014 -0.096,-0.02 -0.163,-0.041 -0.078,-0.024 -0.079,-0.023 -0.176,-0.063 -0.142,-0.057 -0.214,-0.104 -0.271,-0.149 -0.222,-0.142 -0.251,-0.184 -0.143,-0.116 -0.265,-0.236 -0.153,-0.151 -0.279,-0.308 -0.139,-0.171 -0.564,-0.779 -0.116,-0.181 -0.535,-0.93 -0.073,-0.141 -0.548,-1.164 -0.047,-0.106 -0.573,-1.418 -0.033,-0.086 -0.538,-1.53 -0.022,-0.062 -0.561,-1.783 -0.544,-1.904 -0.556,-2.148 c -0.002,-0.008 -0.002,-0.015 -0.004,-0.022 -0.001,-0.004 -0.003,-0.008 -0.004,-0.011 l -0.569,-2.364 -0.542,-2.424 -0.561,-2.669 -0.525,-2.657 -0.547,-2.899 -0.562,-3.153 -0.532,-3.091 -0.553,-3.34 -0.571,-3.583 -0.54,-3.481 -0.561,-3.717 -0.525,-3.574 -0.544,-3.798 -0.565,-4.017 -0.534,-3.837 -0.553,-4.035 -0.521,-3.828 -0.54,-4.02 -1.088,-8.14499 -0.546,-4.113 L 15.617,82.368 15.083,78.375 14.527,74.256 14.005,70.42 13.463,66.47601 12.898,62.438 12.371,58.702 11.82,54.892 11.249,51.029 10.711,47.479 10.155,43.89 9.631001,40.623 9.087001,37.337 8.52,34.049 7.99,31.081 7.438,28.138 6.923,25.498 6.385,22.896 5.828,20.343 5.307,18.1 4.763,15.927 4.202,13.837 3.678,12.051 3.136,10.359 2.652,9.002001 2.127,7.679 1.604,6.531 1.101,5.587 C 0.575,4.607 0.9450001,3.384 1.928,2.861 2.23,2.699 2.556,2.622 2.876,2.622 c 0.721,0 1.417,0.386 1.781,1.065 L 4.655,3.689 5.188,4.684 5.245,4.8 5.824,6.072001 5.861,6.163 6.406,7.53 6.433,7.598001 6.956,9.071 l 0.575,1.801 0.551001,1.877 0.582,2.166 0.559999,2.24 0.536,2.301 0.569,2.602 0.545,2.647 0.523,2.675 0.559,2.976 0.535,2.998 0.57,3.312 0.548,3.309 0.527,3.286 0.559,3.608 0.54,3.562 0.574,3.878 0.552,3.823 0.53,3.745 0.565,4.046 0.543,3.951 0.522,3.842 0.557,4.12101 0.536,3.99399 2.205,16.519 0.538,4.013 0.521,3.821 0.553,4.032 0.532,3.828 0.563,4.009 0.544,3.786 0.523,3.56 0.557,3.701 0.536,3.463 0.569,3.564 0.548,3.315 0.528,3.066 0.559,3.122 0.54,2.864 0.517,2.613 0.55,2.621 0.528,2.366 0.55,2.287 c 0.001,0.004 0.003,0.007 0.004,0.01 h -0.002 l 0.546,2.102 0.514,1.804 0.534,1.694 0.514,1.462 0.53,1.31 0.493,1.047 0.438,0.763 0.44,0.608 0.129,0.142 0.028,0.025 0.068,-0.066 0.401,-0.516 0.434,-0.708 0.498,-1.005 0.509,-1.207 0.496,-1.36 0.556,-1.702 0.524,-1.797 0.505,-1.902 0.546,-2.218 0.526,-2.295 0.56,-2.622 0.543,-2.69 0.523,-2.731 0.554,-3.054 0.538,-3.081 0.569,-3.407 0.549,-3.412 0.527,-3.39 0.565,-3.71 0.542,-3.668 0.521,-3.607 0.557,-3.921 0.536,-3.831 0.567,-4.133 0.547,-4.033 1.089,-8.09999 0.538,-4.04901 0.521,-3.9 0.552,-4.15 1.099,-8.18999 0.546,-4.02201 0.524,-3.82799 0.56,-4.02501 0.536,-3.816 0.573,-3.984 0.55,-3.757 0.532,-3.532 0.563,-3.661 0.542,-3.425 0.527,-3.196 0.553,-3.277 0.538,-3.046 0.571,-3.099 0.55,-2.848 0.53,-2.61 0.563,-2.631 0.548,-2.389 0.579,-2.371 0.559,-2.127 0.544,-1.9 L 64.37,9.497001 64.93301,7.871 64.958,7.802001 65.483,6.451 65.51701,6.37 l 0.554,-1.267 c 0.006,-0.014 0.017,-0.023 0.02399,-0.037 0.01,-0.024 0.015,-0.047 0.027,-0.07 V 4.997 L 66.658,3.949 66.731,3.815 67.302,2.88 67.416,2.712 67.967,1.987 68.137,1.789 68.665,1.255 68.85,1.089 69.124,0.873 69.317,0.739 69.608,0.56 69.729,0.491 69.855,0.424 70.005,0.354 70.145,0.296 70.246,0.254 70.37701,0.208 70.512,0.164 70.635,0.129 70.776,0.096 70.913,0.067 71.009,0.05 71.083,0.039 71.117,0.034 71.287,0.013 71.329,0.011 71.366,0.007 71.514,0.003 h 0.007 L 71.547,0 h 0.168 l 0.166,0.007 0.035,0.002 0.04,0.004 0.063,0.007 0.028,0.002 0.173,0.02 0.069,0.013 0.112,0.02100001 L 72.534,0.105 72.66901,0.14 72.749,0.163 72.872,0.201 73.076,0.275 73.33801,0.387 73.541,0.489 73.828,0.6530001 74.08,0.822 l 0.56,0.444 0.233,0.212 0.54,0.586 0.135,0.164 0.522,0.698 0.095,0.139 0.557,0.893 0.065,0.115 0.533,0.993 0.04401,0.088 0.567,1.194001 0.03299,0.073999 0.547,1.289 0.551,1.409 0.57901,1.61 0.55299,1.653 0.58401,1.856 0.56,1.884 c 9.9e-4,0.004 9.9e-4,0.008 0.002,0.012 0.002,0.005 0.006,0.009 0.008,0.015 h -0.002 l 0.53101,1.87 0.568,2.098 0.54999,2.092 0.524,2.072 0.562,2.258 0.538,2.226 0.572,2.405 0.55,2.357 0.52701,2.287 1.10499,4.818 1.07401,4.699 0.53099,2.311 0.56501,2.439 0.542,2.317 0.52499,2.194 0.55601,2.29 0.53499,2.153 0.569,2.229 0.545,2.076 0.525,1.929 0.56,1.973 0.53501,1.812 0.514,1.655 0.54599,1.678 0.52201,1.51 0.554,1.496 0.531,1.322 0.47899,1.115 0.54601,1.149 0.485,0.92 0.462,0.786 0.47899,0.708 0.427,0.53901 0.407,0.42299 0.332,0.267 0.284,0.17001 0.052,0.02399 0.125,0.039 0.009,0.002 0.024,0.004 0.066,0.004 0.002,0.001 c 0.008,0 0.016,-0.002 0.024,-0.001 l 0.104,-0.019 0.141,-0.049 0.103,-0.049 0.099,-0.055 0.362,-0.267 0.363,-0.346 0.461,-0.526 0.454,-0.611 0.457,-0.704 0.514,-0.883 0.506,-0.96 0.539,-1.113 0.523,-1.163 0.504,-1.20299 0.547,-1.37801 0.525,-1.392 0.562,-1.564 0.541,-1.56899 0.529,-1.57401 0.555,-1.719 0.542,-1.70599 0.52,-1.67601 0.552,-1.815 0.535,-1.775 0.568,-1.904 0.549,-1.85 0.527,-1.782 0.562,-1.897 0.541,-1.819 c 0,-10e-4 10e-4,-10e-4 10e-4,-10e-4 0,-0.002 0,-0.003 0.001,-0.005 l 0.522,-1.733 0.553,-1.827 0.535,-1.737 0.57,-1.816 0.547,-1.705 0.535,-1.608 0.563,-1.652 0.541,-1.54 0.585,-1.584 0.56,-1.452 0.543,-1.341 0.58,-1.349 0.559,-1.225 0.549,-1.117 0.587,-1.099 0.035,-0.062 0.533,-0.916 0.052,-0.087 0.569,-0.878 0.063,-0.09 0.547,-0.748 0.083,-0.105 0.526,-0.63 0.114,-0.125 0.562,-0.568 0.141,-0.128 0.537,-0.45 0.194,-0.143 0.519,-0.337 0.169,-0.1 0.289,-0.149 0.14,-0.065 0.265,-0.111 0.146,-0.057 0.259,-0.086 0.138,-0.041 0.133,-0.036 0.065,-0.014 0.14,-0.032 0.108,-0.022 0.143,-0.023 0.185,-0.025 0.087,-0.011 0.064,-0.005 0.187,-0.009 h 0.005 l 0.092,-0.004 h 0.002 l 0.047,-0.004 h 0.181 l 0.143,0.006 0.041,0.002 0.022,0.002 h 0.002 l 0.203,0.013 0.06,0.007 0.137,0.019 0.143,0.022 0.19,0.038 0.083,0.016 0.125,0.029 0.117,0.033 0.285,0.085 0.178,0.063 0.276,0.114 0.12,0.052 0.257,0.124 0.186,0.103 0.545,0.34 0.185,0.129 0.522,0.414 0.151,0.131 0.557,0.539 0.11,0.113 0.537,0.608 0.087,0.105 0.573,0.741 0.064,0.088 0.549,0.802 0.049,0.073 0.531,0.85 0.602,1.044 0.575,1.084 0.545,1.099 0.572,1.218 0.551,1.236 0.582,1.359 0.561,1.365 0.533,1.348 0.566,1.474 0.543,1.455 0.579,1.566 0.554,1.533 0.537,1.491 0.567,1.597 0.545,1.542 0.525,1.476 0.555,1.569 0.533,1.496 0.566,1.57 0.545,1.483 0.528,1.396 0.556,1.456 0.533,1.355 0.512,1.26 0.543,1.285 0.524,1.187 0.55,1.19 0.528,1.082 0.502,0.96601 0.535,0.96 0.467,0.776 0.539,0.819 0.484,0.669 0.461,0.56299 0.457,0.487 0.402,0.36501 0.358,0.26699 0.369,0.216 0.117,0.053 0.123,0.04801 0.162,0.04999 0.02,0.004 0.105,0.01899 0.08,0.009 0.004,0.001 0.067,0.004 h 0.074 l 0.014,-0.001 0.017,-0.002 0.049,-0.002 0.072,-0.009 0.028,-0.002 0.117,-0.026 0.09,-0.024 0.308,-0.128 0.363,-0.208 0.375,-0.273 0.399,-0.352 0.449,-0.466 0.479,-0.56699 0.445,-0.58801 0.506,-0.735 0.521,-0.823 0.528,-0.90301 0.521,-0.94599 0.481,-0.925 c 0.002,-0.002 0.002,-0.004 0.002,-0.006 l 0.558,-1.128 0.526,-1.105 0.556,-1.224 0.539,-1.226 0.524,-1.216 0.558,-1.325 1.057,-2.573 0.551,-1.364 0.531,-1.322 1.119,-2.769 0.531,-1.298 0.561,-1.36 0.547,-1.3 0.523,-1.218 0.561,-1.273 0.539,-1.187 0.582,-1.227 0.555,-1.132 0.542,-1.05 0.575,-1.059 0.57,-0.976 0.602,-0.963 0.587,-0.867 0.053,-0.072 0.53,-0.711 0.066,-0.085 0.56,-0.673 0.09,-0.099 0.541,-0.569 0.1,-0.1 0.521,-0.474 0.139,-0.118 0.555,-0.422 0.172,-0.117 0.535,-0.324 0.144,-0.081 0.272,-0.137 0.138,-0.062 0.297,-0.122 0.127,-0.048 0.287,-0.095 0.139,-0.041 0.262,-0.066 0.133,-0.028 0.138,-0.026 0.19,-0.029 0.187,-0.026 0.106,-0.009 0.078,-0.006 0.029,-0.003 0.078,-0.006 0.098,-0.002 0.082,-0.004 h 0.195 l 0.053,0.002 h 0.02 l 0.125,0.005 0.109,0.006 0.068,0.006 0.135,0.014 0.131,0.015 0.135,0.019 0.144,0.027 0.086,0.016 0.287,0.067 0.135,0.035 0.268,0.081 0.152,0.052 0.287,0.113 0.18,0.081 0.568,0.288 0.199,0.116 0.547,0.363 0.154,0.112 0.526,0.425 0.131,0.114 0.556,0.536 0.09,0.092 0.541,0.59 0.082,0.096 0.571,0.707 0.056,0.07 0.553,0.752 0.047,0.066 0.531,0.789 0.606,0.966 0.572,0.973 0.547,0.99 0.576,1.084 0.553,1.096 0.58,1.189 0.562,1.178 0.535,1.158 0.567,1.247 0.545,1.217 0.525,1.177 0.555,1.252 0.531,1.2 0.564,1.27 0.543,1.198 0.522,1.137 0.551,1.182 0.529,1.101 0.561,1.129 0.535,1.036 0.513,0.951 0.539,0.947 0.518,0.852 0.486,0.75 0.5,0.709 0.457,0.594 0.5,0.578 0.442,0.454 0.406,0.357 0.418,0.305 0.324,0.188 0.322,0.14 0.11,0.03501 0.066,0.01699 0.094,0.02 0.096,0.013 0.031,0.004 0.039,0.002 0.021,0.002 h 0.008 l 0.004,9.9e-4 0.039,0.001 c 0.02,-0.001 0.039,-0.001 0.059,-0.001 l 0.045,-0.003 h 0.039 l 0.025,-0.002 0.026,-0.004 0.099,-0.015 0.02,-0.004 0.123,-0.03099 0.162,-0.05201 0.09,-0.035 0.353,-0.17699 0.379,-0.24901 0.404,-0.326 0.422,-0.4 0.467,-0.506 0.483,-0.581 0.505,-0.685 0.536,-0.782 0.492,-0.778 0.529,-0.885 0.524,-0.927 0.503,-0.931 0.541,-1.038 0.524,-1.035 0.558,-1.132 0.54,-1.118 0.525,-1.094 0.56,-1.177 0.536,-1.132 0.519,-1.093 0.559,-1.156 0.533,-1.094 0.576,-1.153 0.555,-1.077 0.531,-1.004 0.578,-1.038 0.555,-0.952 0.601,-0.967 0.584,-0.877 0.571,-0.788 0.058,-0.079 0.565,-0.706 0.072,-0.086 0.541,-0.605 0.086,-0.09 0.52,-0.511 0.125,-0.112 0.554,-0.466 0.149,-0.114 0.535,-0.366 0.137,-0.085 0.271,-0.156 0.109,-0.059 0.295,-0.145 0.147,-0.067 0.287,-0.114 0.109,-0.041 0.26,-0.086 0.164,-0.048 0.274,-0.064 0.078,-0.019 0.144,-0.029 0.119,-0.021 0.139,-0.018 0.199,-0.021 0.106,-0.01 0.072,-0.004 h 0.014 l 0.013,-0.001 0.024,-10e-4 h 0.004 l 0.187,-0.009 h 0.16 l 0.063,0.003 h 0.004 l 0.181,0.008 0.034,0.002 0.05,0.005 0.086,0.007 0.057,0.005 0.111,0.012 0.121,0.017 0.071,0.01 0.136,0.024 0.123,0.026 0.264,0.063 0.129,0.036 0.287,0.089 0.219,0.082 0.568,0.25 0.221,0.116 0.547,0.327 0.176,0.119 0.527,0.399 0.129,0.105 0.56,0.501 0.118,0.11 0.537,0.565 0.08,0.09 0.576,0.676 0.064,0.082 0.549,0.723 0.049,0.065 0.531,0.76 0.606,0.932 0.574,0.94 0.545,0.947 0.576,1.035 0.551,1.029 0.58,1.124 0.555,1.096 0.533,1.058 0.566,1.134 0.539,1.086 0.518,1.032 0.547,1.08 0.525,1.01 0.557,1.04 0.529,0.95 0.508,0.882 0.533,0.868 0.506,0.766 0.504,0.717 0.49,0.625 0.443,0.513 0.461,0.462 0.409,0.351 0.367,0.258 0.168,0.1 0.158,0.08 0.143,0.058 0.093,0.031 0.155,0.039 0.056,0.009 0.014,0.004 h 0.019 l 0.077,0.009 0.009,10e-4 h 0.026 l 0.029,0.002 h 0.012 l 0.031,-0.002 h 0.033 l 0.071,-0.007 0.021,-0.002 0.039,-0.006 0.154,-0.036 0.119,-0.039 0.323,-0.144 0.324,-0.205 0.422,-0.328 0.431,-0.403 0.428,-0.463 0.498,-0.61 0.508,-0.687 0.477,-0.699 0.517,-0.814 0.506,-0.846 0.541,-0.948 0.531,-0.969 0.512,-0.958 0.551,-1.053 0.531,-1.027 0.572,-1.109 0.553,-1.066 0.531,-1.018 0.569,-1.066 0.56,-1.011 0.539,-0.935 0.571,-0.952 0.568,-0.887 0.604,-0.875 0.054,-0.073 0.545,-0.721 c 0.012,-0.017 0.029,-0.027 0.041,-0.043 0.01,-0.013 0.018,-0.027 0.027,-0.04 l 0.528,-0.623 0.09,-0.099 0.562,-0.579 0.113,-0.108 0.54,-0.475 0.166,-0.134 0.574,-0.405 0.166,-0.106 0.287,-0.163 0.119,-0.065 0.266,-0.128 0.13,-0.058 0.274,-0.111 0.141,-0.051 0.255,-0.079 0.151,-0.042 0.258,-0.06 0.138,-0.028 0.139,-0.022 0.094,-0.013 0.076,-0.008 0.045,-0.006 0.084,-0.008 0.068,-0.007 0.031,-0.002 0.174,-0.006 h 0.002 l 0.055,-0.005 h 0.201 l 0.147,0.005 0.039,0.004 0.058,0.002 0.07,0.006 0.077,0.007 0.17,0.018 0.097,0.013 0.141,0.022 0.131,0.026 0.252,0.056 0.174,0.048 0.267,0.088 0.131,0.048 0.252,0.101 0.182,0.084 0.533,0.279 0.222,0.136 0.567,0.397 0.16,0.125 0.547,0.473 0.125,0.117 0.523,0.539 0.08,0.09 0.491,0.566 c 0.726,0.843 0.632,2.116 -0.209,2.841"
                   style="fill:#ffffff;fill-opacity:1;fill-rule:nonzero;stroke:none"
                   id="path14328" /></g></g></g></g></g></g></g></svg>
