<?xml version="1.0" encoding="UTF-8" standalone="no"?>
<!-- Created with Inkscape (http://www.inkscape.org/) -->

<svg
   width="417.75006"
   height="386.06073"
   viewBox="0 0 110.52971 102.14524"
   version="1.1"
   id="svg12"
   inkscape:version="1.2.2 (732a01da63, 2022-12-09)"
   sodipodi:docname="pretext-plus-logo.svg"
   inkscape:export-filename="pretext-color.png"
   inkscape:export-xdpi="96"
   inkscape:export-ydpi="96"
   xml:space="preserve"
   xmlns:inkscape="http://www.inkscape.org/namespaces/inkscape"
   xmlns:sodipodi="http://sodipodi.sourceforge.net/DTD/sodipodi-0.dtd"
   xmlns="http://www.w3.org/2000/svg"
   xmlns:svg="http://www.w3.org/2000/svg"><sodipodi:namedview
     id="namedview14"
     pagecolor="#ffffff"
     bordercolor="#666666"
     borderopacity="1.0"
     inkscape:pageshadow="2"
     inkscape:pageopacity="0.0"
     inkscape:pagecheckerboard="0"
     inkscape:document-units="mm"
     showgrid="false"
     units="px"
     height="1e-05px"
     inkscape:zoom="1.28"
     inkscape:cx="123.04688"
     inkscape:cy="121.48438"
     inkscape:window-width="2400"
     inkscape:window-height="1271"
     inkscape:window-x="-9"
     inkscape:window-y="-9"
     inkscape:window-maximized="1"
     inkscape:current-layer="g8743"
     inkscape:showpageshadow="2"
     inkscape:deskcolor="#d1d1d1" /><defs
     id="defs9"><inkscape:path-effect
       effect="mirror_symmetry"
       start_point="132.6344,-77.524968"
       end_point="132.6344,1.5136171"
       center_point="132.6344,-38.005675"
       id="path-effect6889"
       is_visible="true"
       lpeversion="1.2"
       lpesatellites=""
       mode="free"
       discard_orig_path="false"
       fuse_paths="false"
       oposite_fuse="false"
       split_items="false"
       split_open="false"
       link_styles="false" /><inkscape:path-effect
       effect="mirror_symmetry"
       start_point="178.76587,-7.1125216"
       end_point="178.76587,68.453761"
       center_point="178.76587,30.67062"
       id="path-effect2775"
       is_visible="true"
       lpeversion="1.2"
       lpesatellites=""
       mode="free"
       discard_orig_path="false"
       fuse_paths="false"
       oposite_fuse="false"
       split_items="false"
       split_open="false"
       link_styles="false" /></defs><g
     inkscape:label="Layer 1"
     inkscape:groupmode="layer"
     id="layer1"
     transform="translate(-8.6237273,13.465576)"><g
       id="g7389"
       transform="translate(-2.2737627,65.698325)"><g
         id="g8743"
         transform="translate(0,-9.6832989)"><g
           id="g1650"><g
             aria-label="&lt;PreTeXt/&gt;"
             id="g1642"
             style="font-style:italic;font-size:15.8291px;line-height:1.25;font-family:Arial;-inkscape-font-specification:'Arial Italic';fill:#4e6172;stroke:#ffffff;stroke-width:2;stroke-dasharray:none;stroke-opacity:1"
             transform="translate(-23.911735,-102.01065)"><g
               aria-label="&lt;PreTeXtPlus/&gt;"
               id="text1640"
               style="font-style:normal;font-weight:bold;font-size:12.7px;font-family:'Courier New';-inkscape-font-specification:'Courier New, Bold';stroke-linecap:round;stroke-linejoin:round"><path
                 d="m 39.199665,126.05622 4.117578,2.28203 q 0.310059,0.17363 0.409277,0.31006 0.10542,0.13643 0.10542,0.34726 0,0.26666 -0.192236,0.46509 -0.192236,0.19224 -0.446484,0.19224 -0.167432,0 -0.502295,-0.18604 l -6.132959,-3.41064 6.132959,-3.41064 q 0.334863,-0.17984 0.496093,-0.17984 0.26045,0 0.452686,0.19224 0.192236,0.19223 0.192236,0.45888 0,0.21084 -0.10542,0.34727 -0.09922,0.13643 -0.409277,0.31006 z"
                 id="path457" /><path
                 d="m 47.416218,127.09802 v 1.30844 h 1.283642 q 0.458887,0 0.651123,0.17984 0.198438,0.17363 0.198438,0.45888 0,0.27906 -0.198438,0.45889 -0.192236,0.17363 -0.651123,0.17363 h -2.75332 q -0.458887,0 -0.657324,-0.17363 -0.192237,-0.17983 -0.192237,-0.46509 0,-0.27905 0.198438,-0.45268 0.198437,-0.17984 0.651123,-0.17984 h 0.198437 v -4.97334 H 45.94654 q -0.458887,0 -0.657324,-0.17363 -0.192237,-0.17983 -0.192237,-0.46509 0,-0.28525 0.192237,-0.45888 0.198437,-0.17984 0.657324,-0.17984 l 2.926953,0.006 q 1.289844,0 2.040186,0.70694 0.756543,0.70073 0.756543,1.71152 0,0.55811 -0.254249,1.0542 -0.192236,0.37207 -0.644921,0.73794 -0.446485,0.35967 -0.917774,0.5457 -0.465088,0.17984 -1.234033,0.17984 z m 0,-1.27124 h 1.178222 q 0.830957,0 1.314649,-0.37207 0.489892,-0.37828 0.489892,-0.90538 0,-0.44648 -0.396875,-0.78134 -0.390674,-0.33487 -1.122412,-0.33487 h -1.463476 z"
                 id="path459" /><path
                 d="m 55.508747,124.04704 v 0.79375 q 0.799951,-0.57671 1.258838,-0.76895 0.465088,-0.19223 0.868164,-0.19223 0.620117,0 1.203027,0.45888 0.396875,0.31006 0.396875,0.63252 0,0.27286 -0.192236,0.46509 -0.186035,0.18604 -0.452686,0.18604 -0.235644,0 -0.496094,-0.23565 -0.260449,-0.23564 -0.465087,-0.23564 -0.266651,0 -0.799952,0.33486 -0.527099,0.33487 -1.320849,1.00459 v 1.91616 h 1.810742 q 0.458887,0 0.651123,0.17984 0.198438,0.17363 0.198438,0.45888 0,0.27906 -0.198438,0.45889 -0.192236,0.17363 -0.651123,0.17363 h -3.838525 q -0.458887,0 -0.657325,-0.17363 -0.192236,-0.17983 -0.192236,-0.46509 0,-0.27905 0.192236,-0.45268 0.198438,-0.17984 0.657325,-0.17984 h 0.756543 v -3.08818 H 53.77862 q -0.458887,0 -0.657324,-0.17363 -0.192237,-0.17984 -0.192237,-0.46509 0,-0.27905 0.192237,-0.45269 0.198437,-0.17983 0.657324,-0.17983 z"
                 id="path461" /><path
                 d="m 66.584039,127.50729 h -5.215185 q 0.198437,0.4961 0.700732,0.79995 0.508496,0.30386 1.370459,0.30386 0.706934,0 1.878955,-0.30386 0.483692,-0.12402 0.669727,-0.12402 0.254248,0 0.427881,0.17984 0.173632,0.17983 0.173632,0.45268 0,0.24805 -0.186035,0.42168 -0.248047,0.22944 -1.209228,0.44028 -0.961182,0.20464 -1.847949,0.20464 -1.525489,0 -2.443262,-0.86196 -0.911572,-0.86196 -0.911572,-2.1208 0,-1.33945 0.985986,-2.17661 0.992187,-0.84336 2.282031,-0.84336 0.775147,0 1.420068,0.27285 0.651124,0.27285 0.967383,0.58911 0.446485,0.45889 0.73794,1.13482 0.198437,0.47128 0.198437,1.0914 z m -1.407666,-1.27124 q -0.291455,-0.5457 -0.762744,-0.81235 -0.471289,-0.27285 -1.122412,-0.27285 -0.644922,0 -1.116211,0.27285 -0.471289,0.26665 -0.768945,0.81235 z"
                 id="path463" /><path
                 d="m 71.631794,123.43312 v 4.97334 h 0.855761 q 0.458887,0 0.651123,0.17984 0.198438,0.17363 0.198438,0.45888 0,0.27906 -0.198438,0.45889 -0.192236,0.17363 -0.651123,0.17363 h -2.976562 q -0.458887,0 -0.657324,-0.17363 -0.192237,-0.17983 -0.192237,-0.46509 0,-0.27905 0.192237,-0.45268 0.198437,-0.17984 0.657324,-0.17984 h 0.84956 v -4.97334 h -1.37666 v 1.20303 q 0,0.45889 -0.179834,0.65733 -0.173633,0.19223 -0.458887,0.19223 -0.279052,0 -0.458886,-0.19223 -0.173633,-0.19844 -0.173633,-0.65733 v -2.48047 l 6.585644,0.006 v 2.47427 q 0,0.45889 -0.179834,0.65733 -0.173632,0.19223 -0.458886,0.19223 -0.279053,0 -0.458887,-0.19223 -0.173633,-0.19844 -0.173633,-0.65733 v -1.20303 z"
                 id="path465" /><path
                 d="m 81.82652,127.50729 h -5.215185 q 0.198437,0.4961 0.700732,0.79995 0.508496,0.30386 1.370459,0.30386 0.706934,0 1.878955,-0.30386 0.483692,-0.12402 0.669727,-0.12402 0.254248,0 0.427881,0.17984 0.173633,0.17983 0.173633,0.45268 0,0.24805 -0.186036,0.42168 -0.248046,0.22944 -1.209228,0.44028 -0.961182,0.20464 -1.847949,0.20464 -1.525488,0 -2.443262,-0.86196 -0.911572,-0.86196 -0.911572,-2.1208 0,-1.33945 0.985986,-2.17661 0.992188,-0.84336 2.282031,-0.84336 0.775147,0 1.420069,0.27285 0.651123,0.27285 0.967382,0.58911 0.446485,0.45889 0.73794,1.13482 0.198437,0.47128 0.198437,1.0914 z m -1.407666,-1.27124 q -0.291455,-0.5457 -0.762744,-0.81235 -0.471289,-0.27285 -1.122412,-0.27285 -0.644922,0 -1.116211,0.27285 -0.471289,0.26665 -0.768945,0.81235 z"
                 id="path467" /><path
                 d="m 87.091314,125.84538 2.120801,2.56108 q 0.378271,0.006 0.564306,0.18604 0.192237,0.17363 0.192237,0.45268 0,0.27906 -0.198438,0.45889 -0.192236,0.17363 -0.651123,0.17363 h -1.432471 q -0.452685,0 -0.651123,-0.17363 -0.192236,-0.17983 -0.192236,-0.46509 0,-0.26665 0.179834,-0.44028 0.179834,-0.17983 0.539502,-0.19224 l -1.277441,-1.57509 -1.289844,1.57509 q 0.353467,0.0124 0.533301,0.19224 0.179834,0.17983 0.179834,0.44648 0,0.27906 -0.198438,0.45889 -0.192236,0.17363 -0.651123,0.17363 h -1.426269 q -0.458887,0 -0.657325,-0.17363 -0.192236,-0.17983 -0.192236,-0.46509 0,-0.27285 0.192236,-0.45268 0.192237,-0.17984 0.564307,-0.17984 l 2.108398,-2.57348 -2.009179,-2.39986 q -0.372071,-0.0124 -0.558106,-0.18603 -0.179834,-0.17984 -0.179834,-0.45269 0,-0.28525 0.192237,-0.45888 0.198437,-0.17984 0.657324,-0.17984 l 1.172021,0.006 q 0.458887,0 0.651123,0.17364 0.198438,0.17363 0.198438,0.45888 0,0.21084 -0.124024,0.38448 -0.08061,0.10542 -0.359668,0.25424 l 1.184424,1.42007 1.159619,-1.42007 q -0.279052,-0.14882 -0.359668,-0.25424 -0.124023,-0.17364 -0.124023,-0.38448 0,-0.27905 0.192236,-0.45888 0.198438,-0.17984 0.657324,-0.17984 l 1.165821,0.006 q 0.458886,0 0.651123,0.17364 0.198437,0.17363 0.198437,0.45888 0,0.27285 -0.192236,0.45269 -0.186035,0.17983 -0.545703,0.18603 z"
                 id="path469" /><path
                 d="m 93.56534,125.31828 v 2.54868 q 0,0.40928 0.167431,0.5395 0.260449,0.20464 0.930176,0.20464 0.973584,0 1.79834,-0.41548 0.31626,-0.16123 0.496094,-0.16123 0.248046,0 0.42788,0.18604 0.186036,0.18603 0.186036,0.45268 0,0.24805 -0.198438,0.42788 -0.303857,0.29146 -1.203027,0.53951 -0.892969,0.24184 -1.506885,0.24184 -1.184424,0 -1.779736,-0.50849 -0.589112,-0.5147 -0.589112,-1.25884 v -2.79673 h -0.458886 q -0.458887,0 -0.657325,-0.17363 -0.192236,-0.17984 -0.192236,-0.46509 0,-0.27905 0.192236,-0.45269 0.198438,-0.17983 0.657325,-0.17983 h 0.458886 v -1.14722 q 0,-0.45888 0.173633,-0.65112 0.179834,-0.19844 0.465088,-0.19844 0.279053,0 0.452686,0.19844 0.179834,0.19224 0.179834,0.65112 v 1.14722 h 2.350244 q 0.458886,0 0.651123,0.17983 0.198437,0.17364 0.198437,0.45889 0,0.27905 -0.198437,0.45889 -0.192237,0.17363 -0.651123,0.17363 z"
                 id="path471" /><path
                 d="m 100.7649,127.09802 v 1.30844 h 1.28364 q 0.45889,0 0.65112,0.17984 0.19844,0.17363 0.19844,0.45888 0,0.27906 -0.19844,0.45889 -0.19223,0.17363 -0.65112,0.17363 h -2.753319 q -0.458887,0 -0.657324,-0.17363 -0.192237,-0.17983 -0.192237,-0.46509 0,-0.27905 0.198438,-0.45268 0.198437,-0.17984 0.651123,-0.17984 h 0.198437 v -4.97334 h -0.198437 q -0.458887,0 -0.657324,-0.17363 -0.192237,-0.17983 -0.192237,-0.46509 0,-0.28525 0.192237,-0.45888 0.198437,-0.17984 0.657324,-0.17984 l 2.926949,0.006 q 1.28985,0 2.04019,0.70694 0.75654,0.70073 0.75654,1.71152 0,0.55811 -0.25425,1.0542 -0.19223,0.37207 -0.64492,0.73794 -0.44648,0.35967 -0.91777,0.5457 -0.46509,0.17984 -1.23403,0.17984 z m 0,-1.27124 h 1.17822 q 0.83096,0 1.31465,-0.37207 0.48989,-0.37828 0.48989,-0.90538 0,-0.44648 -0.39687,-0.78134 -0.39068,-0.33487 -1.12241,-0.33487 h -1.46348 z"
                 id="path473" /><path
                 d="m 109.7566,121.63478 v 6.77168 h 1.52549 q 0.45889,0 0.65112,0.17984 0.19844,0.17363 0.19844,0.45888 0,0.27906 -0.19844,0.45889 -0.19223,0.17363 -0.65112,0.17363 h -4.32222 q -0.45889,0 -0.65732,-0.17363 -0.19224,-0.17983 -0.19224,-0.46509 0,-0.27905 0.19224,-0.45268 0.19843,-0.17984 0.65732,-0.17984 h 1.52549 v -5.50044 h -1.02319 q -0.45269,0 -0.65113,-0.17363 -0.19843,-0.17983 -0.19843,-0.46509 0,-0.27905 0.19223,-0.45268 0.19844,-0.17984 0.65733,-0.17984 z"
                 id="path475" /><path
                 d="m 119.44283,124.04704 v 4.35942 q 0.40308,0 0.59531,0.17984 0.19224,0.17983 0.19224,0.45888 0,0.27906 -0.19844,0.45889 -0.19224,0.17363 -0.65112,0.17363 h -1.20923 v -0.29145 q -0.5457,0.24805 -1.0418,0.37207 -0.49609,0.12402 -0.94258,0.12402 -0.62631,0 -1.0852,-0.26045 -0.45889,-0.26665 -0.72554,-0.73173 -0.19223,-0.33487 -0.19223,-0.83716 v -2.73472 h -0.21705 q -0.45888,0 -0.65732,-0.17363 -0.19224,-0.17984 -0.19224,-0.46509 0,-0.27905 0.19224,-0.45269 0.19844,-0.17983 0.65732,-0.17983 h 1.48829 v 3.78271 q 0,0.40308 0.19223,0.59532 0.19844,0.18603 0.60152,0.18603 0.38447,0 0.82475,-0.14883 0.44649,-0.15503 1.09761,-0.5519 v -2.59209 h -0.45889 q -0.45888,0 -0.65732,-0.17363 -0.19224,-0.17984 -0.19224,-0.46509 0,-0.27905 0.19224,-0.45269 0.19844,-0.17983 0.65732,-0.17983 z"
                 id="path477" /><path
                 d="m 125.73702,125.53532 q -0.31006,-0.19224 -0.65113,-0.28525 -0.34106,-0.0992 -0.71313,-0.0992 -0.73794,0 -1.17202,0.24184 -0.19224,0.10542 -0.19224,0.22945 0,0.14262 0.26045,0.27905 0.19844,0.0992 0.88677,0.19224 1.26504,0.17363 1.76113,0.34726 0.65112,0.22945 1.00459,0.68213 0.35347,0.45269 0.35347,0.95498 0,0.68213 -0.60152,1.14102 -0.86196,0.66352 -2.23862,0.66352 -0.5519,0 -1.02319,-0.0992 -0.46509,-0.093 -0.85576,-0.27905 -0.093,0.0806 -0.19844,0.12402 -0.10542,0.0434 -0.21704,0.0434 -0.29766,0 -0.47749,-0.19223 -0.17364,-0.19844 -0.17364,-0.65733 v -0.42788 q 0,-0.45889 0.17364,-0.65112 0.17983,-0.19844 0.46509,-0.19844 0.22944,0 0.38447,0.13023 0.15503,0.12402 0.24184,0.43408 0.29146,0.24804 0.70074,0.37827 0.40927,0.12402 0.94257,0.12402 0.87437,0 1.35806,-0.27285 0.22944,-0.13643 0.22944,-0.28525 0,-0.24805 -0.32866,-0.40928 -0.32866,-0.16123 -1.35805,-0.27285 -1.53169,-0.16123 -2.04639,-0.62012 -0.5147,-0.45268 -0.5147,-1.11621 0,-0.68213 0.57671,-1.13481 0.78135,-0.62012 2.04639,-0.62012 0.44028,0 0.84336,0.0868 0.40927,0.0806 0.78134,0.25425 0.11783,-0.0868 0.21704,-0.13022 0.10542,-0.0434 0.19224,-0.0434 0.26045,0 0.43408,0.19844 0.17364,0.19223 0.17364,0.65112 v 0.31006 q 0,0.41548 -0.0992,0.56431 -0.19844,0.28525 -0.5395,0.28525 -0.22945,0 -0.40308,-0.14263 -0.17363,-0.14262 -0.22324,-0.37827 z"
                 id="path479" /><path
                 d="m 134.60469,121.80222 -4.07417,8.78085 q -0.15503,0.32867 -0.27905,0.42789 -0.16123,0.13022 -0.39068,0.13022 -0.26044,0 -0.45268,-0.18603 -0.18604,-0.18604 -0.18604,-0.42168 0,-0.16744 0.14883,-0.4899 l 4.08657,-8.77466 q 0.15503,-0.32866 0.27286,-0.42788 0.16743,-0.13022 0.39067,-0.13022 0.26045,0 0.44648,0.18603 0.18604,0.17984 0.18604,0.41548 0,0.16743 -0.14883,0.4899 z"
                 id="path481" /><path
                 d="m 140.94849,126.05622 -4.11758,-2.28203 q -0.31006,-0.17363 -0.41548,-0.31006 -0.0992,-0.13643 -0.0992,-0.34727 0,-0.26665 0.19224,-0.45888 0.19224,-0.19224 0.45269,-0.19224 0.16123,0 0.49609,0.17984 l 6.13296,3.41064 -6.13296,3.41064 q -0.33486,0.18604 -0.49609,0.18604 -0.26045,0 -0.45269,-0.19224 -0.19224,-0.19223 -0.19224,-0.46509 0,-0.21083 0.0992,-0.34726 0.10542,-0.13643 0.41548,-0.31006 z"
                 id="path483" /></g></g><g
             aria-label="&lt;PreTeXt/&gt;"
             id="text1312"
             style="font-style:italic;font-size:15.8291px;line-height:1.25;font-family:Arial;-inkscape-font-specification:'Arial Italic';fill:#4e6172;stroke-width:0.247"
             transform="translate(-23.911735,-102.01065)"><g
               aria-label="&lt;PreTeXtPlus/&gt;"
               id="text8323"
               style="font-style:normal;font-weight:bold;font-size:12.7px;font-family:'Courier New';-inkscape-font-specification:'Courier New, Bold';stroke:#ffffff;stroke-width:4.99999;stroke-linecap:round;stroke-linejoin:round"><path
                 d="m 39.199665,126.05622 4.117578,2.28203 q 0.310059,0.17363 0.409277,0.31006 0.10542,0.13643 0.10542,0.34726 0,0.26666 -0.192236,0.46509 -0.192236,0.19224 -0.446484,0.19224 -0.167432,0 -0.502295,-0.18604 l -6.132959,-3.41064 6.132959,-3.41064 q 0.334863,-0.17984 0.496093,-0.17984 0.26045,0 0.452686,0.19224 0.192236,0.19223 0.192236,0.45888 0,0.21084 -0.10542,0.34727 -0.09922,0.13643 -0.409277,0.31006 z"
                 style="stroke:none;stroke-width:5"
                 id="path486" /><path
                 d="m 47.416218,127.09802 v 1.30844 h 1.283642 q 0.458887,0 0.651123,0.17984 0.198438,0.17363 0.198438,0.45888 0,0.27906 -0.198438,0.45889 -0.192236,0.17363 -0.651123,0.17363 h -2.75332 q -0.458887,0 -0.657324,-0.17363 -0.192237,-0.17983 -0.192237,-0.46509 0,-0.27905 0.198438,-0.45268 0.198437,-0.17984 0.651123,-0.17984 h 0.198437 v -4.97334 H 45.94654 q -0.458887,0 -0.657324,-0.17363 -0.192237,-0.17983 -0.192237,-0.46509 0,-0.28525 0.192237,-0.45888 0.198437,-0.17984 0.657324,-0.17984 l 2.926953,0.006 q 1.289844,0 2.040186,0.70694 0.756543,0.70073 0.756543,1.71152 0,0.55811 -0.254249,1.0542 -0.192236,0.37207 -0.644921,0.73794 -0.446485,0.35967 -0.917774,0.5457 -0.465088,0.17984 -1.234033,0.17984 z m 0,-1.27124 h 1.178222 q 0.830957,0 1.314649,-0.37207 0.489892,-0.37828 0.489892,-0.90538 0,-0.44648 -0.396875,-0.78134 -0.390674,-0.33487 -1.122412,-0.33487 h -1.463476 z"
                 style="stroke:none;stroke-width:5"
                 id="path488" /><path
                 d="m 55.508747,124.04704 v 0.79375 q 0.799951,-0.57671 1.258838,-0.76895 0.465088,-0.19223 0.868164,-0.19223 0.620117,0 1.203027,0.45888 0.396875,0.31006 0.396875,0.63252 0,0.27286 -0.192236,0.46509 -0.186035,0.18604 -0.452686,0.18604 -0.235644,0 -0.496094,-0.23565 -0.260449,-0.23564 -0.465087,-0.23564 -0.266651,0 -0.799952,0.33486 -0.527099,0.33487 -1.320849,1.00459 v 1.91616 h 1.810742 q 0.458887,0 0.651123,0.17984 0.198438,0.17363 0.198438,0.45888 0,0.27906 -0.198438,0.45889 -0.192236,0.17363 -0.651123,0.17363 h -3.838525 q -0.458887,0 -0.657325,-0.17363 -0.192236,-0.17983 -0.192236,-0.46509 0,-0.27905 0.192236,-0.45268 0.198438,-0.17984 0.657325,-0.17984 h 0.756543 v -3.08818 H 53.77862 q -0.458887,0 -0.657324,-0.17363 -0.192237,-0.17984 -0.192237,-0.46509 0,-0.27905 0.192237,-0.45269 0.198437,-0.17983 0.657324,-0.17983 z"
                 style="stroke:none;stroke-width:5"
                 id="path490" /><path
                 d="m 66.584039,127.50729 h -5.215185 q 0.198437,0.4961 0.700732,0.79995 0.508496,0.30386 1.370459,0.30386 0.706934,0 1.878955,-0.30386 0.483692,-0.12402 0.669727,-0.12402 0.254248,0 0.427881,0.17984 0.173632,0.17983 0.173632,0.45268 0,0.24805 -0.186035,0.42168 -0.248047,0.22944 -1.209228,0.44028 -0.961182,0.20464 -1.847949,0.20464 -1.525489,0 -2.443262,-0.86196 -0.911572,-0.86196 -0.911572,-2.1208 0,-1.33945 0.985986,-2.17661 0.992187,-0.84336 2.282031,-0.84336 0.775147,0 1.420068,0.27285 0.651124,0.27285 0.967383,0.58911 0.446485,0.45889 0.73794,1.13482 0.198437,0.47128 0.198437,1.0914 z m -1.407666,-1.27124 q -0.291455,-0.5457 -0.762744,-0.81235 -0.471289,-0.27285 -1.122412,-0.27285 -0.644922,0 -1.116211,0.27285 -0.471289,0.26665 -0.768945,0.81235 z"
                 style="stroke:none;stroke-width:5"
                 id="path492" /><path
                 d="m 71.631794,123.43312 v 4.97334 h 0.855761 q 0.458887,0 0.651123,0.17984 0.198438,0.17363 0.198438,0.45888 0,0.27906 -0.198438,0.45889 -0.192236,0.17363 -0.651123,0.17363 h -2.976562 q -0.458887,0 -0.657324,-0.17363 -0.192237,-0.17983 -0.192237,-0.46509 0,-0.27905 0.192237,-0.45268 0.198437,-0.17984 0.657324,-0.17984 h 0.84956 v -4.97334 h -1.37666 v 1.20303 q 0,0.45889 -0.179834,0.65733 -0.173633,0.19223 -0.458887,0.19223 -0.279052,0 -0.458886,-0.19223 -0.173633,-0.19844 -0.173633,-0.65733 v -2.48047 l 6.585644,0.006 v 2.47427 q 0,0.45889 -0.179834,0.65733 -0.173632,0.19223 -0.458886,0.19223 -0.279053,0 -0.458887,-0.19223 -0.173633,-0.19844 -0.173633,-0.65733 v -1.20303 z"
                 style="stroke:none;stroke-width:5"
                 id="path494" /><path
                 d="m 81.82652,127.50729 h -5.215185 q 0.198437,0.4961 0.700732,0.79995 0.508496,0.30386 1.370459,0.30386 0.706934,0 1.878955,-0.30386 0.483692,-0.12402 0.669727,-0.12402 0.254248,0 0.427881,0.17984 0.173633,0.17983 0.173633,0.45268 0,0.24805 -0.186036,0.42168 -0.248046,0.22944 -1.209228,0.44028 -0.961182,0.20464 -1.847949,0.20464 -1.525488,0 -2.443262,-0.86196 -0.911572,-0.86196 -0.911572,-2.1208 0,-1.33945 0.985986,-2.17661 0.992188,-0.84336 2.282031,-0.84336 0.775147,0 1.420069,0.27285 0.651123,0.27285 0.967382,0.58911 0.446485,0.45889 0.73794,1.13482 0.198437,0.47128 0.198437,1.0914 z m -1.407666,-1.27124 q -0.291455,-0.5457 -0.762744,-0.81235 -0.471289,-0.27285 -1.122412,-0.27285 -0.644922,0 -1.116211,0.27285 -0.471289,0.26665 -0.768945,0.81235 z"
                 style="stroke:none;stroke-width:5"
                 id="path496" /><path
                 d="m 87.091314,125.84538 2.120801,2.56108 q 0.378271,0.006 0.564306,0.18604 0.192237,0.17363 0.192237,0.45268 0,0.27906 -0.198438,0.45889 -0.192236,0.17363 -0.651123,0.17363 h -1.432471 q -0.452685,0 -0.651123,-0.17363 -0.192236,-0.17983 -0.192236,-0.46509 0,-0.26665 0.179834,-0.44028 0.179834,-0.17983 0.539502,-0.19224 l -1.277441,-1.57509 -1.289844,1.57509 q 0.353467,0.0124 0.533301,0.19224 0.179834,0.17983 0.179834,0.44648 0,0.27906 -0.198438,0.45889 -0.192236,0.17363 -0.651123,0.17363 h -1.426269 q -0.458887,0 -0.657325,-0.17363 -0.192236,-0.17983 -0.192236,-0.46509 0,-0.27285 0.192236,-0.45268 0.192237,-0.17984 0.564307,-0.17984 l 2.108398,-2.57348 -2.009179,-2.39986 q -0.372071,-0.0124 -0.558106,-0.18603 -0.179834,-0.17984 -0.179834,-0.45269 0,-0.28525 0.192237,-0.45888 0.198437,-0.17984 0.657324,-0.17984 l 1.172021,0.006 q 0.458887,0 0.651123,0.17364 0.198438,0.17363 0.198438,0.45888 0,0.21084 -0.124024,0.38448 -0.08061,0.10542 -0.359668,0.25424 l 1.184424,1.42007 1.159619,-1.42007 q -0.279052,-0.14882 -0.359668,-0.25424 -0.124023,-0.17364 -0.124023,-0.38448 0,-0.27905 0.192236,-0.45888 0.198438,-0.17984 0.657324,-0.17984 l 1.165821,0.006 q 0.458886,0 0.651123,0.17364 0.198437,0.17363 0.198437,0.45888 0,0.27285 -0.192236,0.45269 -0.186035,0.17983 -0.545703,0.18603 z"
                 style="stroke:none;stroke-width:5"
                 id="path498" /><path
                 d="m 93.56534,125.31828 v 2.54868 q 0,0.40928 0.167431,0.5395 0.260449,0.20464 0.930176,0.20464 0.973584,0 1.79834,-0.41548 0.31626,-0.16123 0.496094,-0.16123 0.248046,0 0.42788,0.18604 0.186036,0.18603 0.186036,0.45268 0,0.24805 -0.198438,0.42788 -0.303857,0.29146 -1.203027,0.53951 -0.892969,0.24184 -1.506885,0.24184 -1.184424,0 -1.779736,-0.50849 -0.589112,-0.5147 -0.589112,-1.25884 v -2.79673 h -0.458886 q -0.458887,0 -0.657325,-0.17363 -0.192236,-0.17984 -0.192236,-0.46509 0,-0.27905 0.192236,-0.45269 0.198438,-0.17983 0.657325,-0.17983 h 0.458886 v -1.14722 q 0,-0.45888 0.173633,-0.65112 0.179834,-0.19844 0.465088,-0.19844 0.279053,0 0.452686,0.19844 0.179834,0.19224 0.179834,0.65112 v 1.14722 h 2.350244 q 0.458886,0 0.651123,0.17983 0.198437,0.17364 0.198437,0.45889 0,0.27905 -0.198437,0.45889 -0.192237,0.17363 -0.651123,0.17363 z"
                 style="stroke:none;stroke-width:5"
                 id="path500" /><path
                 d="m 100.7649,127.09802 v 1.30844 h 1.28364 q 0.45889,0 0.65112,0.17984 0.19844,0.17363 0.19844,0.45888 0,0.27906 -0.19844,0.45889 -0.19223,0.17363 -0.65112,0.17363 h -2.753319 q -0.458887,0 -0.657324,-0.17363 -0.192237,-0.17983 -0.192237,-0.46509 0,-0.27905 0.198438,-0.45268 0.198437,-0.17984 0.651123,-0.17984 h 0.198437 v -4.97334 h -0.198437 q -0.458887,0 -0.657324,-0.17363 -0.192237,-0.17983 -0.192237,-0.46509 0,-0.28525 0.192237,-0.45888 0.198437,-0.17984 0.657324,-0.17984 l 2.926949,0.006 q 1.28985,0 2.04019,0.70694 0.75654,0.70073 0.75654,1.71152 0,0.55811 -0.25425,1.0542 -0.19223,0.37207 -0.64492,0.73794 -0.44648,0.35967 -0.91777,0.5457 -0.46509,0.17984 -1.23403,0.17984 z m 0,-1.27124 h 1.17822 q 0.83096,0 1.31465,-0.37207 0.48989,-0.37828 0.48989,-0.90538 0,-0.44648 -0.39687,-0.78134 -0.39068,-0.33487 -1.12241,-0.33487 h -1.46348 z"
                 style="stroke:none;stroke-width:5"
                 id="path502" /><path
                 d="m 109.7566,121.63478 v 6.77168 h 1.52549 q 0.45889,0 0.65112,0.17984 0.19844,0.17363 0.19844,0.45888 0,0.27906 -0.19844,0.45889 -0.19223,0.17363 -0.65112,0.17363 h -4.32222 q -0.45889,0 -0.65732,-0.17363 -0.19224,-0.17983 -0.19224,-0.46509 0,-0.27905 0.19224,-0.45268 0.19843,-0.17984 0.65732,-0.17984 h 1.52549 v -5.50044 h -1.02319 q -0.45269,0 -0.65113,-0.17363 -0.19843,-0.17983 -0.19843,-0.46509 0,-0.27905 0.19223,-0.45268 0.19844,-0.17984 0.65733,-0.17984 z"
                 style="stroke:none;stroke-width:5"
                 id="path504" /><path
                 d="m 119.44283,124.04704 v 4.35942 q 0.40308,0 0.59531,0.17984 0.19224,0.17983 0.19224,0.45888 0,0.27906 -0.19844,0.45889 -0.19224,0.17363 -0.65112,0.17363 h -1.20923 v -0.29145 q -0.5457,0.24805 -1.0418,0.37207 -0.49609,0.12402 -0.94258,0.12402 -0.62631,0 -1.0852,-0.26045 -0.45889,-0.26665 -0.72554,-0.73173 -0.19223,-0.33487 -0.19223,-0.83716 v -2.73472 h -0.21705 q -0.45888,0 -0.65732,-0.17363 -0.19224,-0.17984 -0.19224,-0.46509 0,-0.27905 0.19224,-0.45269 0.19844,-0.17983 0.65732,-0.17983 h 1.48829 v 3.78271 q 0,0.40308 0.19223,0.59532 0.19844,0.18603 0.60152,0.18603 0.38447,0 0.82475,-0.14883 0.44649,-0.15503 1.09761,-0.5519 v -2.59209 h -0.45889 q -0.45888,0 -0.65732,-0.17363 -0.19224,-0.17984 -0.19224,-0.46509 0,-0.27905 0.19224,-0.45269 0.19844,-0.17983 0.65732,-0.17983 z"
                 style="stroke:none;stroke-width:5"
                 id="path506" /><path
                 d="m 125.73702,125.53532 q -0.31006,-0.19224 -0.65113,-0.28525 -0.34106,-0.0992 -0.71313,-0.0992 -0.73794,0 -1.17202,0.24184 -0.19224,0.10542 -0.19224,0.22945 0,0.14262 0.26045,0.27905 0.19844,0.0992 0.88677,0.19224 1.26504,0.17363 1.76113,0.34726 0.65112,0.22945 1.00459,0.68213 0.35347,0.45269 0.35347,0.95498 0,0.68213 -0.60152,1.14102 -0.86196,0.66352 -2.23862,0.66352 -0.5519,0 -1.02319,-0.0992 -0.46509,-0.093 -0.85576,-0.27905 -0.093,0.0806 -0.19844,0.12402 -0.10542,0.0434 -0.21704,0.0434 -0.29766,0 -0.47749,-0.19223 -0.17364,-0.19844 -0.17364,-0.65733 v -0.42788 q 0,-0.45889 0.17364,-0.65112 0.17983,-0.19844 0.46509,-0.19844 0.22944,0 0.38447,0.13023 0.15503,0.12402 0.24184,0.43408 0.29146,0.24804 0.70074,0.37827 0.40927,0.12402 0.94257,0.12402 0.87437,0 1.35806,-0.27285 0.22944,-0.13643 0.22944,-0.28525 0,-0.24805 -0.32866,-0.40928 -0.32866,-0.16123 -1.35805,-0.27285 -1.53169,-0.16123 -2.04639,-0.62012 -0.5147,-0.45268 -0.5147,-1.11621 0,-0.68213 0.57671,-1.13481 0.78135,-0.62012 2.04639,-0.62012 0.44028,0 0.84336,0.0868 0.40927,0.0806 0.78134,0.25425 0.11783,-0.0868 0.21704,-0.13022 0.10542,-0.0434 0.19224,-0.0434 0.26045,0 0.43408,0.19844 0.17364,0.19223 0.17364,0.65112 v 0.31006 q 0,0.41548 -0.0992,0.56431 -0.19844,0.28525 -0.5395,0.28525 -0.22945,0 -0.40308,-0.14263 -0.17363,-0.14262 -0.22324,-0.37827 z"
                 style="stroke:none;stroke-width:5"
                 id="path508" /><path
                 d="m 134.60469,121.80222 -4.07417,8.78085 q -0.15503,0.32867 -0.27905,0.42789 -0.16123,0.13022 -0.39068,0.13022 -0.26044,0 -0.45268,-0.18603 -0.18604,-0.18604 -0.18604,-0.42168 0,-0.16744 0.14883,-0.4899 l 4.08657,-8.77466 q 0.15503,-0.32866 0.27286,-0.42788 0.16743,-0.13022 0.39067,-0.13022 0.26045,0 0.44648,0.18603 0.18604,0.17984 0.18604,0.41548 0,0.16743 -0.14883,0.4899 z"
                 style="stroke:none;stroke-width:5"
                 id="path510" /><path
                 d="m 140.94849,126.05622 -4.11758,-2.28203 q -0.31006,-0.17363 -0.41548,-0.31006 -0.0992,-0.13643 -0.0992,-0.34727 0,-0.26665 0.19224,-0.45888 0.19224,-0.19224 0.45269,-0.19224 0.16123,0 0.49609,0.17984 l 6.13296,3.41064 -6.13296,3.41064 q -0.33486,0.18604 -0.49609,0.18604 -0.26045,0 -0.45269,-0.19224 -0.19224,-0.19223 -0.19224,-0.46509 0,-0.21083 0.0992,-0.34726 0.10542,-0.13643 0.41548,-0.31006 z"
                 style="stroke:none;stroke-width:5"
                 id="path512" /></g></g></g><g
           id="g8646"
           transform="translate(0,10.128581)"
           style="stroke:#ffffff;stroke-width:5;stroke-dasharray:none;stroke-opacity:1"><path
             style="fill:#000000;fill-opacity:0;stroke:#ffffff;stroke-width:5;stroke-linecap:round;stroke-linejoin:round;stroke-dasharray:none;stroke-opacity:1"
             d="M 126.00102,-7.1125216 V 68.453761 c 12.87303,-8.948543 38.87728,-8.249552 50.42624,0 h 2.33861 M 231.53072,-7.1125216 V 68.453761 c -12.87303,-8.948543 -38.87728,-8.249552 -50.42624,0 h -2.33861"
             id="path8634"
             sodipodi:nodetypes="cccc"
             transform="translate(-112.60353,-63.424976)" /><path
             style="fill:#ffffff;fill-opacity:1;stroke:#ffffff;stroke-width:5;stroke-linecap:round;stroke-linejoin:round;stroke-dasharray:none;stroke-opacity:1"
             d="m 132.6344,-70.626682 c -5.5793,-4.326525 -25.49392,-12.412308 -47.955359,-1.240234 v 70.4866521 c 30.028029,-8.316292 37.826779,-0.551215 47.955359,2.893881 m 0,-72.1402991 c 5.5793,-4.326525 25.49392,-12.412308 47.95536,-1.240234 v 70.4866521 c -30.02803,-8.316292 -37.82678,-0.551215 -47.95536,2.893881"
             id="path8636"
             sodipodi:nodetypes="cccc"
             transform="translate(-66.47206,0.41341111)" /><g
             id="g8644"
             transform="translate(-122.21099,-35.139974)"
             style="stroke:#ffffff;stroke-width:5;stroke-dasharray:none;stroke-opacity:1"><path
               id="path8638"
               style="fill:none;stroke:#ffffff;stroke-width:5;stroke-linecap:round;stroke-dasharray:none;stroke-opacity:1"
               d="M 196.29375,-25.656749 179.93282,21.657595" /><path
               id="path8640"
               style="fill:none;stroke:#ffffff;stroke-width:5;stroke-linecap:round;stroke-dasharray:none;stroke-opacity:1"
               d="M 167.66521,-22.157021 153.06032,-2.8776003 167.66521,16.40182" /><path
               id="path8642"
               style="fill:none;stroke:#ffffff;stroke-width:5;stroke-linecap:round;stroke-dasharray:none;stroke-opacity:1"
               d="M 209.06838,-22.157021 223.68563,-2.8776003 209.06838,16.40182" /></g></g><path
           style="fill:#000000;fill-opacity:0;stroke:#c7b570;stroke-width:2;stroke-linecap:round;stroke-linejoin:round;stroke-opacity:1"
           d="M 126.00102,-7.1125216 V 68.453761 c 12.87303,-8.948543 38.87728,-8.249552 50.42624,0 h 2.33861 M 231.53072,-7.1125216 V 68.453761 c -12.87303,-8.948543 -38.87728,-8.249552 -50.42624,0 h -2.33861"
           id="path438"
           sodipodi:nodetypes="cccc"
           inkscape:path-effect="#path-effect2775"
           inkscape:original-d="M 126.00102,-7.1125216 V 68.453761 c 12.87303,-8.948543 38.87728,-8.249552 50.42624,0 h 2.33861"
           class="UnoptimicedTransforms"
           transform="translate(-112.60353,-53.296395)" /><path
           style="fill:#ffffff;fill-opacity:1;stroke:#000000;stroke-width:2;stroke-linecap:round;stroke-linejoin:round;stroke-opacity:1"
           d="m 132.6344,-70.626682 c -5.5793,-4.326525 -25.49392,-12.412308 -47.955359,-1.240234 v 70.4866521 c 30.028029,-8.316292 37.826779,-0.551215 47.955359,2.893881 m 0,-72.1402991 c 5.5793,-4.326525 25.49392,-12.412308 47.95536,-1.240234 v 70.4866521 c -30.02803,-8.316292 -37.82678,-0.551215 -47.95536,2.893881"
           id="path2857"
           sodipodi:nodetypes="cccc"
           inkscape:path-effect="#path-effect6889"
           inkscape:original-d="m 132.6344,-70.626682 c -5.5793,-4.326525 -25.49392,-12.412308 -47.955359,-1.240234 v 70.4866521 c 30.028029,-8.316292 37.826779,-0.551215 47.955359,2.893881"
           class="UnoptimicedTransforms"
           transform="translate(-66.47206,10.541992)" /><g
           id="g1695"><path
             id="polyline68"
             style="fill:none;stroke:#4e6172;stroke-width:3.70996;stroke-linecap:round"
             d="M 88.868055,-51.120379 72.507125,-3.8060355" /><path
             id="polyline76"
             style="fill:none;stroke:#4e6172;stroke-width:3.70996;stroke-linecap:round"
             d="m 38.078957,-46.742628 -14.60489,19.279421 14.60489,19.27942" /><path
             id="polyline78"
             style="fill:none;stroke:#4e6172;stroke-width:3.70996;stroke-linecap:round"
             d="m 94.232649,-46.742628 14.617261,19.279421 -14.617261,19.27942" /><g
             id="g1597"
             transform="translate(1.753071,-1.4238995)"><path
               id="path1587"
               style="fill:none;stroke:#4e6172;stroke-width:3.70996;stroke-linecap:round"
               d="M 65.38946,-26.039308 H 41.69048"
               sodipodi:nodetypes="cc" /><path
               id="path1593"
               style="fill:none;stroke:#4e6172;stroke-width:3.70996;stroke-linecap:round"
               d="m 53.53997,-14.189818 v -23.69898"
               sodipodi:nodetypes="cc" /></g></g></g></g></g></svg>
