<?xml version="1.0" encoding="UTF-8" standalone="no"?>
<svg
   width="382.22202"
   height="340.71341"
   viewBox="0 0 382.22202 340.71341"
   version="1.1"
   id="svg26372"
   sodipodi:docname="trace.svg"
   inkscape:version="1.2.2 (732a01da63, 2022-12-09)"
   xmlns:inkscape="http://www.inkscape.org/namespaces/inkscape"
   xmlns:sodipodi="http://sodipodi.sourceforge.net/DTD/sodipodi-0.dtd"
   xmlns="http://www.w3.org/2000/svg"
   xmlns:svg="http://www.w3.org/2000/svg">
  <defs
     id="defs26376" />
  <sodipodi:namedview
     id="namedview26374"
     pagecolor="#ffffff"
     bordercolor="#000000"
     borderopacity="0.25"
     inkscape:showpageshadow="2"
     inkscape:pageopacity="0.0"
     inkscape:pagecheckerboard="0"
     inkscape:deskcolor="#d1d1d1"
     showgrid="false"
     inkscape:zoom="2.035"
     inkscape:cx="130.46683"
     inkscape:cy="198.7715"
     inkscape:window-width="1920"
     inkscape:window-height="1001"
     inkscape:window-x="-9"
     inkscape:window-y="-9"
     inkscape:window-maximized="1"
     inkscape:current-layer="svg26372" />
  <path
     d=""
     stroke="none"
     fill="#085cac"
     fill-rule="evenodd"
     id="path26368" />
  <path
     d="M 253.2566,3.7199795e-4 C 249.47026,-0.037688 245.00012,2.849724 243.38062,6.377778 c -0.55985,1.219642 -0.4998,4.86177 0.13275,8.093293 0.63296,3.230615 1.38663,7.0756 1.6749,8.542618 0.7108,3.61955 -0.93602,4.568003 -3.26254,1.877077 -1.10995,-1.28303 -1.5547,-3.202588 -1.14432,-4.933173 0.86994,-3.664165 -4.12983,-12.670093 -6.26417,-11.285229 -2.10539,1.367343 -4.58121,7.436875 -4.41385,10.821269 0.31888,6.441327 6.14104,15.069937 12.02277,17.818258 4.42038,2.065412 11.723,-0.525295 13.71503,-4.864929 1.79346,-3.907034 1.73974,-5.73402 -0.41087,-13.808404 -1.83309,-6.884423 -1.73861,-7.902862 0.63433,-6.813606 2.07848,0.954091 3.02818,3.470742 2.08493,5.525593 -0.84062,1.83128 4.29379,11.06406 6.03216,10.848631 0.63681,-0.07849 2.08426,-2.162673 3.21732,-4.631039 1.77093,-3.857958 1.83927,-5.190986 0.48525,-9.501911 C 265.2619,5.718055 259.37764,0.060422 253.2566,3.7199795e-4 M 262.41625,39.418593 c -8.35149,4.899656 -15.32612,9.249592 -15.49923,9.667473 -0.30974,0.74908 0.82732,3.020543 4.05066,8.091617 l 1.65459,2.60145 15.3372,-8.957321 c 8.4356,-4.927068 15.28932,-9.346807 15.2305,-9.822737 -0.0592,-0.475021 -1.34131,-3.029817 -2.84751,-5.676483 l -2.74039,-4.811977 -15.18582,8.907978 m 9.95216,19.047518 c -8.46239,4.94228 -15.29067,9.131624 -15.17199,9.309339 0.11777,0.177298 1.21218,2.122193 2.43186,4.321547 1.21926,2.200263 2.64924,4.197964 3.17727,4.440346 0.52803,0.242381 3.4929,-1.127647 6.58858,-3.043909 3.09568,-1.916263 5.70556,-3.277595 5.79897,-3.025654 0.0939,0.253267 -2.11171,2.869683 -4.90193,5.815221 l -5.07163,5.355515 1.98629,3.317072 c 1.09353,1.82456 2.34477,3.48054 2.78192,3.6812 0.43623,0.20025 3.36558,-0.31573 6.51036,-1.14764 10.32235,-2.7307 10.53392,-2.65229 3.52222,1.29662 -3.81856,2.1511 -7.08371,4.21844 -7.25601,4.59378 -0.17271,0.37625 0.92372,2.7578 2.43513,5.29243 l 2.74885,4.609002 15.17744,-8.904122 c 8.34801,-4.89686 15.31551,-9.24566 15.48499,-9.66521 0.32242,-0.79828 -5.94084,-11.881732 -6.98599,-12.361489 -0.33081,-0.151853 -5.1817,0.964213 -10.77726,2.480065 -5.96497,1.615863 -9.52574,2.143488 -8.60693,1.275672 0.86241,-0.814478 4.27203,-4.320741 7.57633,-7.791725 l 6.00764,-6.311159 -3.41463,-5.977523 c -1.87748,-3.288036 -3.69273,-6.105179 -4.03354,-6.261622 -0.34081,-0.156442 -7.54423,3.759473 -16.00794,8.702244 M 212.52539,25.741063 c -8.79406,3.260583 -10.47,12.117998 -3.87274,20.467519 4.05824,5.136327 7.58583,6.325377 12.90575,4.352901 3.57756,-1.326455 4.84258,-2.399557 6.12582,-5.195099 1.82391,-3.973378 1.38465,-9.354236 -0.69983,-8.581372 -0.85792,0.318094 -1.41428,1.777011 -1.62108,4.245836 -0.85631,10.250349 -12.78769,9.47734 -16.39816,-1.061794 -1.89497,-5.531922 -0.90064,-8.484294 3.56818,-10.592181 3.01058,-1.421667 4.34477,-1.466122 6.50111,-0.216616 1.94691,1.128062 2.89033,1.187015 3.33922,0.20912 0.4226,-0.920638 -0.44359,-1.965238 -2.66712,-3.216979 -2.67867,-1.509081 -4.01689,-1.585307 -7.18115,-0.411335 m -17.21926,10.312748 c -1.31911,1.289239 10.94917,22.594887 12.64778,21.965091 0.64046,-0.237464 1.09879,-0.972254 1.01641,-1.631753 -0.15243,-1.23081 -11.43893,-20.816016 -12.19598,-21.163527 -0.23175,-0.106381 -0.89184,0.267318 -1.46821,0.830189 m 41.92478,19.15902 c -1.02307,0.26319 -2.98442,1.172902 -4.35759,2.021402 -2.27245,1.402889 -2.43427,1.74343 -1.7938,3.775939 0.64996,2.062173 0.57292,2.126937 -0.99527,0.842621 -2.19379,-1.795952 -6.4423,-0.489202 -7.76309,2.388135 -0.55151,1.201465 -1.28034,1.768073 -1.6186,1.258498 -0.33916,-0.509992 -2.36671,0.131659 -4.50725,1.424552 l -3.89064,2.351283 1.95871,5.2828 c 1.56336,4.214457 2.29196,5.158488 3.61,4.669793 1.21993,-0.452312 1.57959,-1.139963 1.37906,-2.632726 -0.40801,-3.032725 2.73045,-5.37058 5.01944,-3.738887 2.61256,1.861646 6.63996,-0.118773 7.71493,-3.79335 0.69859,-2.387218 0.99653,-2.631167 1.62398,-1.32535 1.26647,2.636755 3.98948,1.098486 3.58826,-2.025747 -0.29537,-2.297719 -0.18318,-2.355152 1.68159,-0.858777 1.44179,1.156975 2.35526,1.257197 3.27352,0.35942 1.16354,-1.137288 0.6044,-3.320617 -1.05562,-4.124432 -0.37109,-0.179149 -0.40043,-0.925432 -0.0642,-1.657944 0.93323,-2.03304 -1.55673,-4.794589 -3.80344,-4.21723 m 63.86074,44.675777 c -6.49854,3.825762 -13.36402,7.798882 -15.25687,8.830252 l -3.44254,1.87368 3.07399,5.53067 c 1.68986,3.04237 3.55588,5.31505 4.1467,5.0515 1.26537,-0.5657 27.79043,-16.26541 29.30316,-17.34364 0.99868,-0.71341 -3.41584,-9.707072 -5.15715,-10.506392 -0.46895,-0.21526 -6.16917,2.73908 -12.66729,6.56393 M 188.32279,40.410749 c -2.37885,0.88201 -2.40749,1.553262 -0.51016,11.775847 0.97731,5.265831 1.53021,9.665646 1.22879,9.778158 -0.30233,0.112095 -4.07283,-2.700306 -8.37888,-6.249284 -6.49979,-5.357013 -8.06162,-6.302812 -9.19645,-5.566065 -0.75204,0.487733 -1.50555,1.172847 -1.6756,1.521716 -0.29432,0.607615 11.43447,21.528076 12.28967,21.920643 0.22903,0.105129 0.92193,-0.304118 1.54117,-0.910031 0.77007,-0.752336 -0.33858,-3.567518 -3.50071,-8.896579 -2.54438,-4.287371 -4.58857,-7.878601 -4.54268,-7.978572 0.0463,-0.10088 3.51637,2.625328 7.71203,6.057617 9.93748,8.132177 10.89295,7.800542 8.82785,-3.065721 -0.86541,-4.553173 -1.65884,-9.013883 -1.7626,-9.912061 -0.22636,-1.959052 0.13361,-1.456018 5.42786,7.565156 3.05797,5.210822 4.08651,6.30684 5.34872,5.700087 1.23227,-0.591885 0.36376,-2.793991 -4.10406,-10.405901 -7.38525,-12.579969 -6.93341,-11.991846 -8.70495,-11.33501 m 37.54606,25.689752 c -0.42719,0.930635 -0.27139,2.209212 0.34615,2.841482 0.75044,0.767003 1.38076,0.5876 1.89973,-0.542977 0.42719,-0.930636 0.27138,-2.209212 -0.34615,-2.841483 -0.75045,-0.767003 -1.38076,-0.587599 -1.89973,0.542978 m 14.12875,12.34588 c -7.42188,1.254085 -12.30116,4.44553 -15.3354,10.032067 -2.40317,4.42269 -2.64778,5.72982 -1.96992,10.50939 0.8199,5.778952 4.48705,12.821962 8.81009,16.921202 6.95773,6.59823 15.90625,6.80525 23.56181,0.54523 3.03264,-2.47886 5.03625,-4.89971 5.5718,-6.72799 0.75158,-2.56976 0.96758,-2.68077 2.16103,-1.10743 0.98657,1.30011 1.81476,1.56695 3.23533,1.03949 1.66148,-0.61603 1.24356,-1.89169 -3.22426,-9.839202 -2.82395,-5.02308 -5.33232,-9.2235 -5.57588,-9.3353 -0.24357,-0.1118 -3.92319,1.71026 -8.1776,4.04861 -6.1672,3.38918 -7.5515,4.53516 -6.82561,5.652902 1.43523,2.20917 1.7893,2.15934 7.58843,-1.063202 l 5.4819,-3.04686 1.22822,3.01971 c 3.93135,9.667532 -5.96618,19.709032 -16.12899,16.363252 -4.97399,-1.63844 -8.58645,-5.26735 -11.30645,-11.36064 -4.19907,-9.403112 -0.83567,-17.868842 8.16631,-20.556442 3.84703,-1.148843 5.20284,-1.041433 8.38604,0.66293 2.26522,1.21366 4.6453,1.80555 5.90304,1.46743 1.96646,-0.52775 2.03477,-0.69335 1.03069,-2.492255 -1.71935,-3.081208 -8.11588,-5.487071 -12.58058,-4.732892 m 81.32245,38.094389 c -11.9732,-1.47771 -24.05648,9.50693 -22.67987,20.61942 1.04653,8.44453 8.49763,16.528 16.63387,18.04674 3.66916,0.68407 11.097,-1.77433 15.23145,-5.04029 4.67549,-3.69432 7.82526,-11.70905 6.77276,-17.23056 -1.43844,-7.54281 -9.24779,-15.56736 -15.95821,-16.39531 M 158.84371,57.523984 c -4.1644,2.501803 -7.0886,4.864288 -6.8236,5.511885 0.25524,0.623311 3.07286,5.590669 6.26094,11.040575 l 5.79854,9.907344 7.45965,-4.337455 c 5.45008,-3.169298 7.31355,-4.733517 6.9163,-5.804928 -0.29892,-0.806211 -0.75962,-1.351083 -1.02291,-1.208966 -0.26379,0.14079 -3.00423,1.693064 -6.09137,3.449298 -5.89146,3.351803 -6.15426,3.293888 -9.03295,-1.988686 -1.11711,-2.048844 -0.97986,-2.213609 4.3268,-5.161557 3.83662,-2.132911 5.24791,-3.395241 4.7048,-4.211214 -0.74993,-1.127674 -2.4964,-0.53745 -8.68425,2.930277 -2.2815,1.278797 -2.97025,1.235521 -4.04004,-0.252441 -3.21652,-4.477072 -3.23831,-4.405647 2.37251,-7.599094 2.94482,-1.676319 5.55454,-3.485554 5.80026,-4.020852 1.27449,-2.776457 -1.39475,-2.189493 -7.94468,1.745814 m 42.61607,18.003014 c -4.74495,2.831685 -5.66088,3.772341 -5.54355,5.695649 0.12397,2.028688 -0.004,2.105431 -1.06943,0.644629 -1.0264,-1.407523 -2.32382,-1.011693 -8.54865,2.608512 -6.97328,4.05456 -9.67269,7.48302 -6.07277,7.71388 0.81434,0.0525 1.95713,1.51567 2.54077,3.25251 1.28816,3.83836 0.9429,3.72279 -3.48305,-1.16861 -2.7465,-3.03445 -3.73566,-3.66016 -4.74745,-3.00447 -1.84355,1.19485 -1.98344,1.73691 -1.80181,6.9599 l 0.16402,4.707652 -1.7239,-4.305762 -1.7239,-4.30576 -7.99668,4.67081 -7.99667,4.670812 1.81651,5.08439 c 1.99959,5.59645 2.73611,6.34826 4.51672,4.60737 0.71243,-0.69627 0.70019,-2.59445 -0.0296,-4.70095 -0.7856,-2.26527 -0.7651,-3.83923 0.057,-4.38613 0.96132,-0.63923 1.54282,0.0931 2.32392,2.92191 0.77162,2.79911 1.42673,3.63239 2.53527,3.22137 2.25951,-0.83776 2.55935,-2.28679 1.17711,-5.68529 -0.70088,-1.72354 -0.76057,-3.56867 -0.13568,-4.1797 0.86542,-0.845002 1.48054,-0.16433 2.71144,3.00296 l 1.59168,4.09762 3.11289,-2.13833 c 1.71264,-1.17572 3.2447,-2.73471 3.40516,-3.46539 0.16095,-0.72936 1.12857,-1.19295 2.14974,-1.03009 1.02207,0.16327 3.46684,-0.72809 5.43243,-1.980262 l 3.57545,-2.27589 -1.25446,-3.61934 c -0.96091,-2.77267 -0.8792,-3.89271 0.34658,-4.78686 1.42412,-1.03858 1.68985,-0.74495 2.40041,2.65222 0.9106,4.35165 1.54089,4.93696 3.38006,3.14043 0.77481,-0.75787 1.0039,-2.6784 0.56656,-4.76511 l -0.7308,-3.49449 2.2566,2.8888 c 2.12942,2.72479 2.36557,2.82879 4.157,1.82898 1.60252,-0.89507 1.83551,-1.87965 1.49199,-6.32089 l -0.40619,-5.261147 1.51375,4.444767 1.51417,4.44385 2.73182,-1.39448 c 5.45047,-2.78181 5.84913,-3.360236 4.53947,-6.581279 -0.6789,-1.668337 -1.79153,-2.964701 -2.47379,-2.880666 -0.72682,0.08999 -0.79853,-0.276325 -0.17324,-0.888256 0.58634,-0.5726 0.7331,-1.71449 0.32714,-2.536822 -0.56277,-1.13749 -2.09901,-0.684035 -6.42409,1.896953 m 117.54254,53.184552 c -4.13496,0.99466 -9.11699,5.26568 -9.68259,8.30042 -1.16984,6.2663 6.05521,8.31746 12.7647,3.62466 4.83712,-3.38245 5.6772,-5.00162 4.39352,-8.46381 -1.24288,-3.35214 -3.52936,-4.41161 -7.47563,-3.46127 m -47.80123,-11.38143 c -2.57551,0.95568 -3.53276,2.85886 -2.30512,4.58543 0.50988,0.71819 0.70402,2.19372 0.42961,3.27811 -0.68078,2.69359 3.67379,5.38898 5.61469,3.47629 0.7603,-0.75022 2.1659,-1.65976 3.1213,-2.02003 2.26828,-0.85685 2.8385,-2.19496 1.24715,-2.92545 -0.69616,-0.31956 -1.22039,-1.29411 -1.16443,-2.16629 0.0559,-0.87218 -0.58992,-1.62969 -1.43429,-1.68389 -0.84438,-0.0542 -1.60552,-0.65886 -1.69012,-1.34468 -0.21445,-1.73572 -1.38201,-2.10222 -3.81879,-1.19949 m 60.40973,41.33994 c -8.05709,4.73771 -14.81271,8.97251 -15.01379,9.41057 -0.20108,0.43805 1.78211,4.45461 4.40733,8.92543 5.24855,8.93858 10.0689,13.52688 15.39412,14.65424 3.94444,0.83464 12.25918,-1.81082 16.2784,-5.1781 4.06579,-3.40642 6.57909,-9.6271 5.80207,-14.36086 -0.63286,-3.85885 -9.43209,-20.69584 -11.29404,-21.61106 -0.50996,-0.25059 -7.5179,3.42166 -15.57409,8.15978 M 141.58625,67.670654 c -4.51687,2.680003 -7.75533,5.226127 -7.65682,6.020669 0.11507,0.928676 1.37401,0.801264 3.87409,-0.390402 l 3.703,-1.76512 5.48336,9.512897 c 3.01527,5.23193 5.87349,9.47081 6.35014,9.42003 2.26284,-0.24096 1.42887,-2.96417 -3.41808,-11.157225 -5.34856,-9.0395 -5.69294,-10.753438 -2.341,-11.653104 1.03555,-0.278371 2.13001,-1.044649 2.43247,-1.703546 1.41799,-3.089092 -1.24513,-2.546632 -8.42716,1.715801 m 66.5685,27.625864 c -1.4476,1.09932 -0.61469,3.17285 6.27243,15.615492 l 7.9422,14.34857 -17.64342,-8.87684 c -13.60039,-6.8427 -18.07851,-8.76076 -19.5407,-8.36794 -1.044,0.27999 -2.03996,0.8197 -2.21393,1.19868 -0.17396,0.37898 3.6894,7.87187 8.58673,16.65032 4.8969,8.77936 9.23606,16.58528 9.64265,17.34629 0.79026,1.47849 4.51884,1.0719 4.67153,-0.50959 0.0455,-0.47314 -3.43279,-7.19402 -7.73047,-14.93688 -5.96139,-10.73913 -7.28188,-13.8287 -5.57193,-13.03058 1.23357,0.57505 9.20662,4.74329 17.71804,9.26319 14.22962,7.55737 15.62573,8.13551 17.33456,7.18141 1.02265,-0.57148 1.98677,-1.31507 2.14237,-1.65406 0.29745,-0.64799 -18.55432,-34.858782 -19.43134,-35.261362 -0.27992,-0.12849 -1.26046,0.33688 -2.17872,1.0333 M 257.4877,125.2525 c -2.93526,1.84246 -3.41589,4.45957 -1.15675,6.30972 0.87263,0.71416 1.1628,1.58018 0.64493,1.92453 -0.51788,0.34435 -1.50074,-0.75051 -2.18554,-2.43476 -0.93388,-2.29703 -1.62312,-2.9193 -2.76215,-2.49698 -1.13904,0.42232 -1.38765,1.04542 -0.99737,2.49875 0.44498,1.65778 0.18829,1.78312 -1.7875,0.87617 -2.98276,-1.36918 -4.40286,0.12568 -3.33257,3.50862 0.84271,2.66341 0.83434,2.66726 -1.84488,0.92686 -3.03457,-1.97063 -5.98377,-0.98952 -7.59909,2.52944 -0.67291,1.46594 -1.27699,1.73441 -2.07327,0.92105 -0.61754,-0.63227 -1.29983,-0.76391 -1.51634,-0.29223 -0.2161,0.47077 -2.74313,2.07589 -5.61584,3.56635 -5.33414,2.76809 -7.26588,6.07029 -3.68392,6.29951 1.06637,0.0692 2.2314,1.27296 2.95664,3.05609 1.00498,2.47051 1.51277,2.85765 3.16567,2.41373 1.75844,-0.47249 1.83956,-0.89849 0.76581,-3.99584 -1.96742,-5.67852 0.0102,-7.60406 2.22248,-2.16415 0.99136,2.43785 1.4976,2.81878 3.15009,2.37577 1.75488,-0.47193 1.83398,-0.95827 0.73193,-4.50214 -0.68046,-2.1851 -0.88131,-3.19057 -0.44722,-2.23538 2.05661,4.5278 7.99273,4.26199 10.15873,-0.45662 0.54734,-1.19238 1.21354,-1.47634 1.8751,-0.79855 1.42215,1.45384 3.71914,-1.05241 3.0949,-3.37676 -0.43625,-1.62407 -0.27141,-1.68594 1.12025,-0.42214 2.22274,2.02051 5.4167,0.58289 4.69237,-2.1131 -0.42196,-1.5713 -0.19035,-1.73786 1.40282,-1.00655 2.27478,1.04421 6.90931,-1.58289 7.06487,-4.00481 0.0608,-0.94259 -0.60827,-2.30162 -1.48552,-3.02009 -0.87725,-0.71848 -1.33585,-1.87197 -1.01837,-2.56359 0.96368,-2.09938 -2.85129,-3.00993 -5.54026,-1.3229 m 80.51418,44.32091 c -7.05581,4.10251 -7.62656,4.64595 -6.67526,6.3513 2.57684,4.61696 8.24581,4.68626 14.02556,0.17075 2.95072,-2.3052 3.27046,-4.23143 1.41998,-8.54909 -1.03105,-2.40655 -1.22156,-2.36306 -8.77028,2.02704 m -53.7261,-26.51719 c -4.75486,1.31199 -7.24388,4.31327 -6.67928,8.05717 0.61913,4.10452 4.75504,5.66304 10.91592,4.11179 3.9475,-0.99379 5.19613,-0.90697 6.06821,0.42202 2.729,4.16085 -2.34528,8.6712 -7.23112,6.42844 -3.57258,-1.63993 -5.49223,-0.12351 -2.68869,2.12509 2.97509,2.38786 6.09002,2.41921 9.53771,0.0957 8.76323,-5.9045 4.29065,-15.2439 -5.84948,-12.215 -4.85718,1.45098 -8.07244,0.55714 -7.89612,-2.19526 0.15537,-2.41431 5.30379,-5.1158 7.36187,-3.86079 0.87875,0.53542 2.31339,1.03442 3.18707,1.10867 1.31838,0.11224 1.38997,-0.22351 0.42022,-1.97254 -1.62398,-2.9318 -2.84544,-3.29114 -7.14631,-2.10525 M 124.67046,77.032279 c -4.37539,2.064951 -6.45205,6.013638 -5.09216,9.681369 1.4238,3.8401 4.50801,4.78932 10.89185,3.34922 6.01656,-1.35671 7.75255,-1.06598 8.68815,1.45741 0.87562,2.36161 -0.42046,4.42285 -3.90215,6.20923 -2.5719,1.31935 -3.57117,1.27658 -5.84961,-0.25345 -1.85552,-1.24565 -3.08036,-1.51851 -3.77502,-0.83939 -1.9479,1.90397 4.59102,6.017972 8.12943,5.114782 6.11887,-1.56282 9.98123,-6.817642 8.31456,-11.312792 -1.50148,-4.04962 -5.4738,-5.29097 -11.59951,-3.62455 -5.65698,1.53937 -7.63503,0.95378 -8.07763,-2.39191 -0.46907,-3.549302 4.12679,-6.061006 7.98013,-4.361518 2.22074,0.979778 3.45828,0.975683 4.16542,-0.0135 0.80973,-1.133553 0.30213,-1.729663 -2.6161,-3.069228 -2.92732,-1.343736 -4.31725,-1.333668 -7.25736,0.05433 M 356.98122,192.58535 c -5.99999,3.49234 -12.96141,7.54025 -15.47101,8.99713 -2.79979,1.62405 -4.31558,3.05408 -3.92263,3.701 0.35265,0.5789 3.79747,6.42833 7.65648,12.99825 l 7.01683,11.94432 4.04024,-1.9173 4.04065,-1.91822 -1.58536,-3.23647 c -0.8719,-1.78003 -2.8124,-5.14651 -4.31131,-7.48065 -1.49982,-2.33455 -2.48615,-4.76899 -2.19336,-5.40922 1.14402,-2.50184 3.8343,-0.75196 6.76783,4.40394 1.6801,2.95096 3.36293,5.50046 3.73896,5.66647 0.74017,0.32436 8.0206,-4.04696 7.70071,-4.62292 -0.10662,-0.19199 -1.75297,-3.02952 -3.6578,-6.30591 -2.90729,-4.99972 -3.18861,-6.11034 -1.74906,-6.91407 1.50457,-0.8399 2.23913,-0.0527 5.98037,6.40706 l 4.2649,7.36362 2.58986,-1.31771 c 5.97215,-3.03858 6.00511,-2.66695 -1.35408,-15.17664 -3.8041,-6.46659 -7.30538,-12.15709 -7.78027,-12.64466 -0.47489,-0.48757 -5.77237,1.97054 -11.77195,5.46198 m -90.54009,-39.2876 c -7.3856,4.41106 -7.3764,3.1158 -0.10432,15.41495 l 5.00878,8.47091 6.36939,-3.70019 c 3.99546,-2.32077 6.41183,-4.3464 6.48117,-5.4347 0.0858,-1.33271 -1.07754,-1.04919 -5.02757,1.22532 -6.56059,3.77637 -6.09419,3.67357 -7.52969,1.67113 -3.1451,-4.38817 -3.15099,-4.36336 1.67192,-7.08444 2.53117,-1.42717 4.76225,-2.94367 4.95707,-3.3681 0.43637,-0.95063 -2.2388,-2.28755 -2.70929,-1.35368 -0.18551,0.36818 -2.11931,1.5271 -4.29799,2.57471 -3.91878,1.88284 -3.97991,1.87458 -5.63387,-0.76179 l -1.67239,-2.66574 5.22529,-3.18776 c 4.71001,-2.87303 6.14566,-4.65344 4.34477,-5.38768 -0.35244,-0.14308 -3.5392,1.47061 -7.08327,3.58706 m -26.15404,-12.76808 c -0.23525,0.97032 0.0366,2.19984 0.60742,2.73254 0.66186,0.61961 1.1897,0.33265 1.46534,-0.79519 0.23526,-0.97033 -0.0366,-2.19984 -0.60741,-2.73255 -0.66186,-0.6196 -1.1897,-0.33264 -1.46535,0.7952 M 113.50506,84.233918 c -0.59282,0.57953 -1.21566,3.56158 -1.38421,6.62784 -0.16813,3.06534 -0.38448,5.74434 -0.48001,5.95247 -0.096,0.20902 -2.95816,-0.75162 -6.35931,-2.1346 -9.1229,-3.70797 -9.320396,-1.67171 -0.31566,3.2573 6.44236,3.526122 7.78931,4.683572 9.98828,8.582422 2.39301,4.24319 4.06719,5.3781 4.98499,3.37869 0.22027,-0.47986 -0.81281,-2.96107 -2.29527,-5.51321 -2.1911,-3.7698 -2.61789,-6.023312 -2.2794,-12.019842 0.43688,-7.73059 -0.0571,-9.89282 -1.85941,-8.13107 m 37.3788,20.938802 c -1.29663,0.98377 -1.63532,1.81749 -1.23573,3.03962 0.43845,1.3412 0.29071,1.43293 -0.72824,0.45025 -0.8724,-0.84169 -2.50766,-0.58003 -5.14699,0.82389 l -3.86953,2.05839 1.48626,5.67441 c 1.3459,5.14124 1.68028,5.60172 3.55483,4.90745 1.87497,-0.69519 1.96933,-1.09971 1.00432,-4.30449 l -1.06516,-3.53794 1.44414,3.24207 c 1.40458,3.15568 1.49038,3.20607 3.19725,1.91107 1.25821,-0.95519 1.59061,-1.7896 1.17543,-2.95617 -0.45334,-1.27761 -0.24335,-1.39468 0.98059,-0.54457 0.8566,0.59567 2.34479,0.58009 3.30742,-0.0332 1.45724,-0.93095 1.41034,-2.02969 -0.28526,-6.60084 -1.91742,-5.17142 -2.13561,-5.40802 -3.81933,-4.1299 m 22.01763,9.58306 c -0.846,0.31367 -1.71187,1.01103 -1.92259,1.54919 -0.21205,0.53865 4.01056,8.79502 9.38254,18.34921 9.42732,16.7655 9.8416,17.32758 11.90311,16.12055 1.17453,-0.68661 2.03845,-1.41568 1.91846,-1.6193 -0.12,-0.20362 -4.28972,-7.6787 -9.26734,-16.61064 -11.00566,-19.75117 -10.1485,-18.48075 -12.01418,-17.78901 m 81.01274,46.05611 c -0.29787,0.6489 2.00052,5.47694 5.10858,10.72726 4.18488,7.07051 5.97837,9.32861 6.91431,8.70633 1.36579,-0.90911 1.19939,-1.29689 -5.42373,-12.66547 -4.2672,-7.32506 -5.67886,-8.77299 -6.59916,-6.76812 m 39.94802,20.78787 c -0.98081,0.47074 -1.68534,1.06831 -1.56796,1.32795 2.58029,5.67376 15.65714,26.53632 16.42893,26.2117 1.72621,-0.72826 16.4153,-9.32839 16.59344,-9.71646 0.0893,-0.19448 -0.33571,-0.8627 -0.94442,-1.48542 -0.74863,-0.76617 -3.33806,0.14791 -8.00936,2.82635 l -6.90133,3.95775 -4.09177,-7.02887 c -2.24975,-3.86494 -5.35859,-9.25976 -6.90867,-11.98819 -2.47041,-4.35024 -3.03627,-4.85537 -4.59886,-4.10481 m -76.14653,-32.86644 c -1.30979,0.62892 -1.62577,1.80867 -1.47336,5.49649 l 0.19452,4.69634 -1.41731,-2.42321 c -0.77955,-1.33162 -2.1357,-2.75187 -3.0118,-3.15403 -2.11393,-0.97037 -6.56656,1.90528 -7.03095,4.53974 -0.27924,1.58392 -0.53853,1.73888 -1.06791,0.63653 -0.52027,-1.08387 -2.30088,-0.52473 -6.96095,2.18197 -4.52313,2.62652 -6.03902,3.97288 -5.45821,4.84576 0.5394,0.81207 -0.0194,1.04189 -1.70252,0.70063 -1.68623,-0.34161 -3.26202,0.30826 -4.81821,1.98932 -1.27068,1.37309 -2.42631,2.18391 -2.56881,1.8016 -0.14208,-0.38321 -2.80683,0.822 -5.92198,2.6776 -4.86006,2.89548 -5.64207,3.71937 -5.51441,5.80476 0.13369,2.19929 0.0231,2.26517 -1.16984,0.69317 -1.08959,-1.43764 -1.88431,-1.42503 -4.59798,0.0713 -2.61306,1.4402 -3.18188,2.17598 -2.7947,3.61688 0.39437,1.46841 0.15681,1.65755 -1.26187,1.00633 -3.91158,-1.79554 -5.01899,0.13994 -3.21554,5.62435 l 1.72465,5.24137 -1.92779,-4.5831 c -1.8282,-4.34703 -3.8421,-5.61918 -4.9785,-3.14355 -0.2841,0.61891 0.35708,3.39776 1.42465,6.17539 l 1.94112,5.05025 3.52879,-2.34683 c 3.00171,-1.99681 3.44799,-2.6502 2.98422,-4.37493 -0.4777,-1.78064 -0.34479,-1.84727 1.08703,-0.54633 1.04885,0.9535 2.28343,1.16921 3.46198,0.60327 1.55421,-0.74669 1.59213,-1.59634 0.25012,-5.60026 l -1.58109,-4.71995 2.61997,3.65528 c 2.36473,3.30044 2.81978,3.58194 4.67263,2.89421 1.85333,-0.68641 2.04496,-1.27405 1.96631,-6.03824 l -0.0863,-5.27717 1.24635,4.42324 c 0.68649,2.43325 1.50016,4.29219 1.80847,4.13112 6.41042,-3.34135 8.33158,-4.79876 7.89206,-5.98421 -0.33776,-0.91096 0.33844,-1.19034 2.09358,-0.86221 4.45981,0.83134 8.12912,-6.55099 4.00143,-8.05072 -1.20528,-0.43773 -1.10006,-0.82515 0.62966,-2.32093 l 2.07677,-1.7964 1.07813,3.96752 c 0.94252,3.46953 1.30224,3.85803 2.87055,3.1046 1.48639,-0.71401 1.64183,-1.54162 0.90933,-4.84544 -1.22685,-5.53002 0.59606,-7.18327 2.52867,-2.29427 1.15953,2.93207 1.82037,3.60182 3.09068,3.13083 1.23849,-0.4592 1.54935,-1.10763 1.33475,-2.7807 -0.23643,-1.83164 -0.0611,-2.00975 1.08705,-1.10968 0.75169,0.58931 1.92035,0.94862 2.59723,0.79719 2.37664,-0.53202 9.61295,-5.36811 10.31297,-6.89312 0.38923,-0.84793 1.22284,-1.30483 1.85175,-1.01614 0.62981,0.28911 1.96215,-0.0126 2.96045,-0.67005 1.59424,-1.04961 1.43338,-1.66041 -1.31767,-5.00615 -3.70101,-4.5003 -4.16057,-4.76958 -6.34813,-3.71943 m 25.95984,17.95169 c -3.42796,2.0025 -6.43703,4.08726 -6.68734,4.63255 -0.80015,1.74313 1.23874,1.8582 3.85405,0.21658 l 2.53334,-1.59012 4.84077,8.27605 c 2.66282,4.5519 5.26245,8.46961 5.77866,8.70657 2.66558,1.22359 1.51467,-2.84666 -2.881,-10.18668 l -4.92026,-8.21791 2.8398,-1.6321 c 3.37235,-1.9389 3.74969,-2.52602 2.10562,-3.28069 -0.67707,-0.3108 -4.03569,1.07324 -7.46364,3.07575 M 93.278785,96.679678 c -2.835635,-0.13641 -8.420381,3.369392 -9.664784,6.068332 -1.102561,2.38994 0.928067,7.49449 3.440057,8.64758 1.054235,0.48393 4.448672,0.30907 7.543797,-0.38828 6.038345,-1.36102 7.637805,-1.09886 8.564555,1.40066 1.66225,4.48322 -5.296959,8.75881 -9.847953,6.05027 -1.750258,-1.04109 -2.668696,-1.07537 -3.109656,-0.11474 -0.42302,0.92154 0.447222,1.9669 2.688096,3.22881 2.778032,1.56349 3.963205,1.59917 7.326023,0.22036 6.81218,-2.79273 8.5808,-9.72825 3.60576,-14.13778 -1.54825,-1.37089 -2.60038,-1.30809 -12.477614,0.74777 -5.075693,1.05689 -6.473499,-3.65485 -2.098883,-7.07245 2.110741,-1.649872 3.194679,-1.765192 5.709394,-0.61085 3.927937,1.80305 5.675243,0.74117 3.095469,-1.882252 -1.08331,-1.10135 -2.056847,-2.01037 -2.163732,-2.02202 -0.107301,-0.0108 -1.282119,-0.0714 -2.610529,-0.13541 M 209.74289,157.70524 c -0.68381,0.45413 -1.00128,1.48135 -0.70531,2.2796 0.72566,1.95718 1.57335,1.45284 1.78056,-1.05761 0.12405,-1.51432 -0.1564,-1.83341 -1.07525,-1.22199 m 114.57196,55.84703 c -5.3796,1.9946 -8.013,7.35032 -5.76764,11.72819 2.15876,4.20939 3.89783,4.67318 11.02454,2.94031 6.90388,-1.67892 9.822,-1.0007 10.02648,2.32921 0.20423,3.3496 -0.73717,4.64058 -4.53513,6.21466 -2.87591,1.193 -3.9775,1.11426 -6.30903,-0.45113 -3.69089,-2.47767 -6.0136,-0.68963 -3.036,2.33757 2.85862,2.90767 5.78384,3.16772 10.74001,0.95455 5.73924,-2.56233 8.27098,-7.5983 6.02323,-11.98057 -2.22194,-4.33302 -4.86947,-5.06858 -11.69889,-3.24985 -6.32954,1.68618 -8.51673,1.3908 -9.50838,-1.28375 -0.87119,-2.34968 0.41649,-4.42138 3.83748,-6.17621 2.34313,-1.20209 3.6624,-1.19728 5.7663,0.0227 1.96152,1.13697 2.90411,1.19774 3.35383,0.21803 0.4226,-0.92064 -0.44359,-1.96524 -2.66712,-3.21698 -2.68916,-1.51499 -4.01556,-1.5858 -7.24968,-0.38668 M 144.46943,130.65954 c -1.51681,0.72755 -1.65417,1.27848 -0.82229,3.29432 1.41498,3.42784 16.89706,30.99513 18.09643,32.22238 0.61613,0.63052 4.86444,-1.11205 11.15232,-4.57237 12.9905,-7.15058 12.38631,-6.67091 11.01713,-8.75073 -1.02699,-1.55964 -2.22876,-1.18042 -9.59117,3.02672 -4.62988,2.64573 -8.86142,4.86474 -9.40285,4.932 -0.54233,0.0668 -4.81289,-6.82183 -9.49198,-15.30865 -4.67818,-8.4864 -8.64845,-15.4947 -8.82204,-15.57438 -0.17267,-0.0793 -1.1345,0.24945 -2.13555,0.73071 m 132.98071,60.76742 c -1.15873,0.55632 -0.91663,4.5857 1.00261,16.68779 1.39223,8.77488 2.83659,16.24008 3.20888,16.58923 1.67143,1.56277 3.08395,-2.08009 2.24772,-5.79793 -0.49689,-2.20868 -0.68648,-4.48755 -0.42199,-5.06374 0.26449,-0.57619 2.84047,-2.39102 5.72292,-4.03215 l 5.24283,-2.98385 3.60049,3.17559 c 3.75672,3.31223 5.28689,3.73734 6.21178,1.72248 0.35961,-0.78341 -3.4756,-4.42325 -11.09576,-10.53002 -13.06165,-10.46853 -13.58391,-10.79299 -15.71948,-9.7674 m -45.29431,-17.88782 c -1.09134,0.7259 9.92696,20.17149 11.33156,19.99761 2.10824,-0.26132 1.48694,-2.10787 -3.65184,-10.85412 -5.5666,-9.47298 -6.14626,-10.16379 -7.67972,-9.14349 m 48.80944,28.38539 c 0.60886,3.63547 1.39219,6.75905 1.74059,6.94209 0.34841,0.18304 2.38289,-0.72061 4.52134,-2.00896 l 3.88829,-2.34136 -2.97993,-2.60024 c -1.6375,-1.43057 -4.17108,-3.50023 -5.62798,-4.60032 l -2.65028,-2 1.10797,6.60879 M 125.2695,141.24814 c -6.04818,3.3888 -11.2699,6.41535 -11.60457,6.72496 -0.33377,0.31003 3.7803,8.53198 9.14414,18.2717 l 9.75138,17.70869 12.16905,-6.75854 c 9.00586,-5.002 12.0596,-7.16968 11.7454,-8.34051 -0.23389,-0.86878 -0.69896,-1.70615 -1.03522,-1.86051 -0.33536,-0.15394 -4.86918,2.09796 -10.0748,5.00317 -5.20513,2.90653 -9.66751,5.39589 -9.91754,5.53309 -0.46972,0.25862 -7.26109,-10.73386 -7.40994,-11.99163 -0.0466,-0.38998 3.8003,-2.8736 8.54696,-5.51964 6.43227,-3.5855 8.5216,-5.21989 8.20127,-6.41334 -0.23656,-0.88212 -0.72325,-1.73711 -1.08224,-1.90189 -0.35807,-0.16437 -4.50782,1.89082 -9.22166,4.56844 l -8.57052,4.86623 -1.75147,-2.54139 c -0.96386,-1.39753 -2.48583,-4.00742 -3.38367,-5.80046 l -1.6322,-3.25907 9.63673,-5.31209 c 7.25438,-3.99815 9.52856,-5.71164 9.20155,-6.93126 -0.24001,-0.8914 -0.72378,-1.75276 -1.0755,-1.91421 -0.35262,-0.16186 -5.58854,2.47856 -11.63715,5.86826 m 100.67967,36.1209 c -1.34222,0.89132 -1.45031,0.60184 3.23774,8.65924 l 3.83987,6.59964 -10.02095,-4.28525 c -7.28515,-3.11635 -10.16363,-3.97443 -10.5441,-3.14559 -0.61033,1.32961 9.45186,19.07314 10.90835,19.23447 2.46212,0.27414 1.96265,-1.86419 -1.92431,-8.23898 l -4.19273,-6.87605 10.09932,4.08575 c 5.55495,2.24732 10.41156,3.73394 10.79188,3.30334 0.38122,-0.43018 -1.73184,-4.86616 -4.69569,-9.85773 -6.3724,-10.73304 -6.11127,-10.40301 -7.49938,-9.47884 m 83.8483,45.07565 c -1.5269,1.01561 -1.03477,2.34294 4.04529,10.89828 l 4.74582,7.99149 -12.01157,-5.20781 c -9.4368,-4.09083 -12.24773,-4.97622 -13.1144,-4.12849 -0.75579,0.73799 1.0214,4.66879 5.63158,12.45718 3.70408,6.25783 7.17973,11.58227 7.72411,11.83216 2.84826,1.30744 1.60227,-3.14535 -3.19286,-11.40815 l -5.37529,-9.26413 11.72093,6.00637 c 9.78486,5.01533 12.01252,5.86735 13.4844,5.16098 1.03761,-0.49859 1.56332,-1.30588 1.27659,-1.96125 -0.93824,-2.14609 -13.04331,-22.60879 -13.49681,-22.81696 -0.25265,-0.11597 -0.89934,0.0823 -1.43779,0.44033 M 260.07676,201.4786 c -0.72671,0.71063 -0.91514,1.79708 -0.43146,2.48124 0.47339,0.67063 4.02858,6.66316 7.89936,13.31771 5.05021,8.68028 7.38804,11.87154 8.27679,11.29692 0.68111,-0.44107 1.3597,-1.05165 1.5093,-1.35599 0.27646,-0.5663 -14.68397,-26.4175 -15.50737,-26.79546 -0.24901,-0.11431 -1.03461,0.36022 -1.74662,1.05558 M 183.989,174.297 c 0.27214,1.19774 0.53151,2.40172 0.57775,2.67492 0.0462,0.2732 0.37651,-0.14186 0.73404,-0.92072 0.35794,-0.77977 0.0972,-1.98326 -0.57776,-2.67492 -1.07009,-1.09419 -1.16546,-0.97512 -0.73403,0.92072 m 68.84018,31.62521 c -6.66265,3.13094 -16.42253,9.58145 -16.50807,10.90878 -0.15656,2.44568 1.03886,2.37273 5.22746,-0.31602 l 3.90031,-2.50419 6.92071,11.9332 c 6.43594,11.0956 8.46729,13.30774 9.69987,10.56266 0.37494,-0.83359 -7.9711,-16.12896 -12.6719,-23.22613 -0.40097,-0.60548 0.88204,-1.93111 3.2559,-3.36556 3.63492,-2.19689 4.68831,-3.84688 2.96245,-4.63911 -0.39261,-0.18022 -1.64703,0.10992 -2.78673,0.64637 M 206.5289,188.36815 c -0.59843,0.3976 -0.83356,1.15672 -0.52195,1.68598 0.31162,0.52925 2.28234,3.84908 4.3799,7.37679 2.09623,3.52819 3.69758,7.33867 3.55849,8.46867 -0.31031,2.50494 -3.11339,4.76897 -6.13387,4.95373 -2.56767,0.15715 -3.476,-0.83637 -8.85434,-9.68158 -2.56491,-4.21867 -3.91205,-5.63698 -4.97948,-5.24121 -1.06876,0.39626 -0.32042,2.5102 2.76442,7.81588 5.60242,9.63467 8.03369,11.37349 13.21969,9.45067 8.36046,-3.09982 8.94049,-7.19194 2.58939,-18.26621 -4.2699,-7.44623 -4.43055,-7.6212 -6.02225,-6.56272 m 73.25806,51.46299 c -8.45858,3.13619 -11.0371,11.32072 -6.24351,19.81938 2.02442,3.58876 3.49573,4.97385 6.98562,6.57582 3.72981,1.71211 5.14347,1.79656 9.04776,0.53976 8.8184,-2.83899 11.28373,-11.8556 5.73248,-20.96173 -1.49433,-2.45197 -3.44186,-4.08207 -6.6182,-5.54011 -3.88522,-1.78344 -5.1025,-1.84267 -8.90415,-0.43312 M 94.619627,159.20045 c -3.741925,1.48317 -9.01682,3.98797 -11.723753,5.56553 l -4.921366,2.86844 3.177549,5.72455 c 1.747562,3.14918 5.893899,10.59371 9.214116,16.5444 3.320216,5.95068 6.338798,11.40311 6.708488,12.11747 0.45777,0.88683 3.293109,-0.16745 8.950569,-3.33068 13.56938,-7.58467 16.59248,-12.84732 13.43181,-23.38354 -2.35022,-7.83371 -7.10873,-13.78883 -13.2851,-16.62399 -4.54957,-2.0884 -5.03703,-2.06679 -11.552313,0.51782 m 89.596403,42.30943 c -3.80676,2.18293 -7.12265,4.40633 -7.36836,4.94162 -0.77179,1.68133 1.12555,1.80515 4.122,0.26806 l 2.88384,-1.47875 4.44709,7.75535 c 4.62472,8.06354 5.71245,9.31106 7.0532,8.08017 0.43939,-0.40349 -1.17397,-4.14465 -3.58513,-8.31475 -5.61185,-9.70282 -5.47242,-9.05014 -2.36005,-11.00276 1.70322,-1.06891 2.50037,-2.13671 2.19997,-2.9469 -0.30088,-0.81152 -2.9777,0.16589 -7.39256,2.69796 m 46.72749,17.30893 c -0.6743,0.65876 -0.93422,1.65408 -0.57694,2.21089 0.35819,0.55724 3.03792,5.07949 5.95633,10.05021 l 5.30645,9.03777 -14.0209,-5.88589 c -11.50317,-4.8292 -14.17311,-5.65977 -14.87024,-4.62528 -1.10258,1.63731 13.4678,26.4182 15.61436,26.5552 0.85381,0.0552 1.71935,-0.26268 1.92252,-0.70528 0.20316,-0.44259 -2.46236,-5.69334 -5.92211,-11.66846 l -6.29172,-10.86325 13.51246,6.94317 c 12.73127,6.54278 13.61197,6.86783 15.24116,5.6318 1.52835,-1.16019 0.84528,-2.81944 -5.90606,-14.34259 -4.19926,-7.16624 -7.88327,-13.14418 -8.18682,-13.28352 -0.30355,-0.13934 -1.10377,0.28557 -1.77849,0.94523 m 50.40694,24.11662 c -3.30456,0.91152 -4.32669,1.76711 -5.71173,4.78441 -1.38963,3.02729 -1.36675,4.46601 0.1322,8.17117 3.29354,8.14459 10.38443,10.90989 15.98617,6.23565 2.50152,-2.08888 2.95003,-2.94371 3.05817,-5.83523 0.16171,-4.27865 -2.86857,-10.05553 -6.58142,-12.54768 -2.28439,-1.53386 -3.66664,-1.69632 -6.88339,-0.80832 M 100.52478,161.85939 c -1.526479,0.075 -5.829317,1.65833 -9.561384,3.51794 l -6.78407,3.3811 7.644471,13.77947 c 4.204515,7.57907 7.928023,13.90964 8.274283,14.06859 0.34626,0.15894 3.4479,-1.44429 6.89118,-3.5641 9.93575,-6.1145 11.33657,-12.37821 5.06389,-22.64294 -3.41516,-5.59045 -7.65568,-8.73084 -11.52837,-8.54006 m 70.12104,48.15025 c -1.89313,0.79468 -4.88536,2.31059 -6.64804,3.36761 l -3.20553,1.92306 5.5139,9.31455 c 3.03312,5.1235 5.94425,9.5132 6.47046,9.75475 1.07332,0.49269 2.58644,-2.09171 1.54193,-2.63279 -0.36609,-0.19005 -1.41372,-1.8725 -2.32743,-3.73885 l -1.65992,-3.39283 3.93636,-2.09373 3.93769,-2.09422 3.19316,3.88318 c 2.63118,3.19938 3.43085,3.7249 4.54235,2.98625 0.9994,-0.66467 0.41576,-2.06591 -2.25189,-5.40637 -1.98037,-2.48142 -3.58989,-4.93895 -3.57644,-5.46203 0.0605,-2.37535 -2.00939,-6.01137 -3.92155,-6.88911 -1.15603,-0.53066 -3.65191,-0.31415 -5.54505,0.48053 m 90.09223,41.19573 c -0.92925,0.4471 -1.5849,1.00769 -1.45792,1.24643 0.71614,1.33553 12.714,21.62908 13.33598,22.55608 0.40824,0.60882 1.47051,0.75644 2.36062,0.32988 1.30756,-0.62885 0.25928,-3.09613 -5.46514,-12.86052 -5.96925,-10.18267 -7.34834,-11.95565 -8.77354,-11.27187 m -91.46097,-37.52837 -4.26176,2.0643 1.43282,2.79453 c 1.80693,3.52083 3.78706,3.65845 7.54331,0.52366 2.43451,-2.0316 2.86961,-2.81886 2.44055,-4.41543 -0.80204,-2.98693 -2.50963,-3.2173 -7.15492,-0.96706 m 83.65027,42.26145 c -13.79651,7.68397 -15.60609,9.15958 -12.81237,10.442 0.74978,0.34417 1.51291,0.32366 1.69612,-0.0467 0.1832,-0.37034 1.53559,-1.30541 3.00475,-2.08014 l 2.67229,-1.40861 5.88893,10.01486 c 3.23968,5.5077 6.34194,10.22171 6.89542,10.47577 2.96276,1.36001 1.56446,-3.28593 -3.66933,-12.18472 l -5.88606,-10.00914 3.40799,-2.26585 c 4.77553,-3.17635 3.74978,-5.69271 -1.19774,-2.9375 m -53.41083,-18.92218 c -4.17025,2.47381 -8.07894,4.84762 -8.68659,5.27729 -0.69205,0.48887 1.53869,5.32767 5.97211,12.9546 3.89273,6.69543 7.54009,12.64774 8.10618,13.22669 1.30268,1.33299 18.14052,-8.3406 18.27839,-10.50107 0.15751,-2.45734 -1.06533,-2.33426 -5.56842,0.55783 -2.33413,1.49891 -5.7634,3.47551 -7.6194,4.39066 l -3.37432,1.66512 -2.34929,-4.24733 c -1.29275,-2.33742 -2.45182,-4.40993 -2.57738,-4.60621 -0.12515,-0.19719 2.61745,-2.02025 6.09542,-4.05261 5.59139,-3.26618 7.44658,-5.5219 5.33902,-6.48934 -0.37171,-0.17063 -3.53079,1.34682 -7.01834,3.37369 l -6.34309,3.68365 -2.50124,-4.0266 c -1.42507,-2.29363 -2.04534,-4.35098 -1.44174,-4.78141 0.5822,-0.41496 3.73617,-2.34077 7.00739,-4.27988 5.28003,-3.12963 7.0337,-5.37033 4.95158,-6.32609 -0.37898,-0.17396 -4.10003,1.7072 -8.27028,4.18101 M 64.321668,176.50116 c -1.998308,0.0554 -5.46689,0.91913 -7.707556,1.91958 -11.076822,4.94483 -14.272211,17.37842 -7.393002,28.76442 5.146825,8.51777 10.370613,11.86524 18.264724,11.70378 10.641413,-0.21854 19.632932,-10.63301 17.935242,-20.77276 -0.995476,-5.94536 -2.397998,-8.91855 -6.655184,-14.10329 -4.079549,-4.97005 -9.244138,-7.65546 -14.444224,-7.51173 m 89.098452,43.64111 c -5.27942,0.11282 -10.04481,5.79597 -9.7696,11.65168 0.16086,3.41772 4.4801,9.96783 7.48285,11.34619 5.03125,2.30951 11.57833,-0.30121 14.0034,-5.58421 3.35746,-7.31421 -3.55451,-17.58852 -11.71665,-17.41366 M 61.63217,181.14012 c -8.190875,1.98491 -12.508089,8.9785 -10.641286,17.2373 2.164897,9.57738 10.154632,16.85179 17.654602,16.07478 3.89425,-0.40316 9.735844,-4.43254 11.269397,-7.77338 3.367059,-7.33512 -1.592026,-19.09519 -9.99594,-23.70548 -3.996839,-2.19229 -5.465057,-2.51744 -8.286773,-1.83322 m 89.82516,42.68841 c -5.49462,2.23559 -6.15706,9.23986 -1.36253,14.40937 3.06239,3.3027 6.76779,3.74483 10.0286,1.19796 3.53987,-2.76647 3.85905,-7.05976 0.85841,-11.57088 -2.78073,-4.18239 -5.90741,-5.50651 -9.52448,-4.03645 m 78.90829,45.07469 c -1.60643,1.56998 3.16427,30.0092 4.92388,29.35679 1.02102,-0.37857 1.30747,-1.85355 1.00148,-5.16845 l -0.42753,-4.63935 4.04019,-2.5093 c 4.87927,-3.03081 6.37896,-3.0235 9.57001,0.0445 1.97945,1.90332 2.8275,2.21558 4.41298,1.62849 2.39875,-0.88939 2.95354,-0.30022 -10.02759,-10.67568 -11.13821,-8.90342 -12.05079,-9.44666 -13.49342,-8.03697 M 181.613,248.37385 c -1.65781,0.16218 -15.40408,7.62164 -15.85463,8.60317 -0.35043,0.76341 14.2599,25.03779 15.47531,25.71234 2.9537,1.63863 2.82265,-1.3814 -0.29597,-6.84123 l -3.31768,-5.80758 5.12394,-2.81836 c 5.92497,-3.2594 7.53772,-2.8536 11.56667,2.90747 2.53616,3.6245 3.05234,3.98138 4.6563,3.21021 0.99184,-0.47559 1.69856,-1.06115 1.57158,-1.29989 -1.60807,-3.00482 -6.92672,-9.40082 -8.3672,-10.06205 -1.23509,-0.56694 -1.7048,-1.71783 -1.38966,-3.40631 0.95589,-5.12665 -4.05389,-10.69976 -9.16866,-10.19777 m 52.40424,30.46354 0.9003,6.05683 3.1863,-1.55997 c 4.22535,-2.0689 4.61508,-3.25111 1.75462,-5.32778 -1.30915,-0.94974 -3.36144,-2.5146 -4.56138,-3.47693 l -2.17973,-1.74988 0.89989,6.05773 m -97.60599,-48.33968 c -1.47886,-0.0671 -12.21184,5.68918 -11.89842,6.37991 0.11156,0.24597 2.64446,4.65901 5.62966,9.80782 4.15218,7.16333 5.79098,9.22388 6.97522,8.775 1.56473,-0.59223 1.31583,-1.42829 -2.03534,-6.84413 -1.14401,-1.84883 -1.07883,-1.97405 2.18724,-4.17521 5.29323,-3.56589 6.50456,-7.49917 3.5089,-11.39071 -1.59349,-2.07056 -2.25522,-2.45794 -4.36726,-2.55268 m 44.41283,22.14526 c -1.96847,0.53453 -9.7181,4.66955 -10.03182,5.35299 -0.21735,0.4735 4.64183,8.40259 5.34798,8.72674 0.92428,0.42427 9.82127,-5.81715 10.54716,-7.3985 1.64077,-3.57441 -2.00483,-7.72799 -5.86332,-6.68123 m -45.49842,-18.64171 c -1.03762,0.25652 -3.01906,1.20762 -4.40197,2.11327 -2.44491,1.59881 -2.45756,1.72944 -0.44868,4.62336 2.05728,2.96345 2.08125,2.97115 4.73422,1.57348 1.46741,-0.77333 3.0925,-2.30723 3.61153,-3.40917 1.21691,-2.58392 -0.89401,-5.54559 -3.4951,-4.90094 M 30.490463,193.82608 c -2.635551,1.47718 -2.635298,1.49821 0.225873,19.32193 1.574512,9.81362 2.554213,17.68942 2.177439,17.50106 -0.377192,-0.18745 -6.631268,-5.47568 -13.897246,-11.74997 L 5.7845215,207.49009 2.8920522,209.15303 0,210.81506 9.6143047,228.06251 c 5.2869063,9.48543 9.9796523,17.41516 10.4277023,17.62083 0.448959,0.20608 1.577564,0.008 2.509046,-0.43934 1.40713,-0.67557 0.414215,-3.11963 -5.869741,-14.44805 -4.158465,-7.49962 -7.3805842,-13.70236 -7.1587244,-13.78538 0.2223515,-0.0817 6.0096694,4.6677 12.8600494,10.55535 11.661831,10.02074 12.578191,10.63723 14.344582,9.65124 1.639421,-0.91554 1.514781,-3.36706 -0.951799,-18.73528 l -2.83811,-17.6822 3.506626,6.32124 c 1.928087,3.47742 5.484087,9.89724 7.901455,14.26715 4.203785,7.59744 6.739063,9.74491 8.073204,6.83849 0.493941,-1.07605 -16.731619,-33.6711 -18.685475,-35.35691 -0.332628,-0.28693 -1.792229,0.14339 -3.242657,0.95643 m 186.162717,83.39057 c -1.81091,0.67068 -1.46126,1.72354 3.15574,9.50186 6.78131,11.42909 6.80525,14.76635 0.12325,17.5176 -4.22562,1.73868 -6.67625,-0.13775 -12.1885,-9.33602 -4.46315,-7.44471 -7.43561,-10.25059 -8.4087,-7.93656 -0.53933,1.28518 10.09649,18.15539 12.51552,19.84897 3.06091,2.14338 7.06928,1.87513 11.39781,-0.76369 6.91818,-4.2174 6.9384,-8.79426 0.0944,-20.46557 -4.65456,-7.9386 -5.38435,-8.85127 -6.68955,-8.36659 m -99.34728,-36.12546 c -1.52163,0.66372 -4.17671,2.05161 -5.90123,3.08544 l -3.13536,1.88044 5.45281,9.36133 c 2.9991,5.1497 5.85409,9.54664 6.34485,9.77191 2.38839,1.09635 2.51755,-1.25847 0.26831,-4.88001 l -2.50783,-4.03622 4.13156,-3.15176 c 4.3427,-3.31452 5.46958,-6.03549 3.82534,-9.23957 -1.44178,-2.80856 -5.42856,-4.12147 -8.47845,-2.79156 m 35.83603,22.99573 c -4.14921,2.44715 -8.065,4.79569 -8.70326,5.22012 -0.75557,0.50262 1.54443,5.36552 6.6086,13.96748 6.53128,11.09645 8.04812,13.08231 9.52672,12.48356 0.96777,-0.39201 5.17497,-2.69701 9.35042,-5.12222 6.24911,-3.62996 7.45352,-4.69567 6.81499,-6.02528 -0.62317,-1.29836 -2.21056,-0.75505 -8.0822,2.7621 -4.01855,2.40701 -7.54132,4.29007 -7.8272,4.18415 -0.28629,-0.10501 -1.64113,-2.21127 -3.00986,-4.6804 l -2.48934,-4.48877 6.79923,-3.98702 c 5.79066,-3.39587 6.61299,-4.17814 5.5424,-5.27365 -0.69116,-0.70678 -1.69951,-1.0222 -2.24048,-0.69946 -5.71499,3.41081 -11.38711,6.77857 -11.67504,6.93359 -0.19695,0.10545 -1.45307,-1.75083 -2.79269,-4.12517 l -2.43395,-4.317 7.27086,-4.26898 c 3.99814,-2.34815 7.22143,-4.66467 7.16148,-5.14772 -0.27318,-2.20941 -2.83126,-1.53621 -9.82068,2.58467 m -37.2081,-19.28038 -3.60934,1.86312 1.97394,3.29601 1.97486,3.29643 3.33351,-1.8423 c 3.78125,-2.08901 4.50992,-3.17064 3.66724,-5.44341 -1.00246,-2.70372 -3.57291,-3.11342 -7.34021,-1.16985 m -16.400107,6.30617 c -6.596621,1.68792 -9.661431,7.14929 -7.69964,13.71978 2.768616,9.27134 11.362317,12.74189 17.929397,7.23989 2.49955,-2.09417 3.15204,-3.23278 3.46764,-6.04888 0.92737,-8.27896 -6.78797,-16.67849 -13.697397,-14.91079 m 91.834077,42.36061 c -1.19078,-0.0426 -3.98739,0.65639 -6.21409,1.55212 -3.31333,1.33332 -4.40354,2.40194 -6.003,5.88637 -6.50509,14.17129 11.93984,28.58426 22.31008,17.43387 1.56722,-1.6859 3.23646,-2.43151 4.79212,-2.14103 1.58403,0.29579 2.42177,-0.091 2.48999,-1.14569 0.0597,-0.93539 -0.6886,-1.73111 -1.81433,-1.92986 -1.33456,-0.23519 -1.96028,-1.24754 -2.06426,-3.33416 -0.20641,-4.16705 -2.11457,-8.44296 -5.31925,-11.9199 -2.9972,-3.25296 -4.91492,-4.284 -8.17726,-4.40172 M 98.718949,254.49851 c -5.574121,2.29372 -6.033199,9.9624 -0.883537,14.75138 3.305818,3.07444 7.348718,3.22476 10.408758,0.38657 6.02723,-5.58916 -1.94405,-18.25878 -9.525221,-15.13795 m 33.560811,21.8446 c -4.66863,2.71817 -8.61501,5.23643 -8.77079,5.59735 -0.15444,0.36043 3.16145,6.5171 7.36958,13.6808 5.54537,9.44013 8.05021,12.87641 9.10305,12.48604 2.31255,-0.85743 2.19993,-1.41747 -1.47226,-7.34928 -1.9115,-3.08688 -3.37278,-5.83617 -3.24804,-6.10791 0.12515,-0.27265 2.94903,-2.14093 6.27555,-4.15258 4.87001,-2.94593 5.90208,-3.95981 5.30248,-5.20883 -0.58178,-1.21114 -2.13622,-0.73963 -7.07536,2.14596 -3.48062,2.03335 -6.62501,3.56194 -6.98763,3.39549 -0.36171,-0.16604 -1.49801,-2.06524 -2.5251,-4.21911 l -1.86761,-3.91839 6.9467,-4.07337 c 5.6261,-3.29866 6.80381,-4.37333 6.19271,-5.64524 -0.59575,-1.24065 -2.53788,-0.53338 -9.24328,3.36907 m 56.57968,20.57154 c -1.16726,0.11228 -3.35382,1.34003 -4.86026,2.72814 -2.42634,2.23672 -2.73216,2.95568 -2.68927,6.33796 0.0536,4.14753 2.8761,9.16663 6.72884,11.96287 1.88461,1.36684 3.34611,1.51727 6.44629,0.66268 4.66266,-1.28609 5.27555,-2.05557 3.07252,-3.86016 -0.87997,-0.71973 -1.40672,-1.72955 -1.17143,-2.24213 0.23529,-0.51257 1.36528,-0.81691 2.51058,-0.67519 2.62713,0.32457 2.94064,-0.39197 1.95795,-4.47632 -1.48118,-6.15292 -6.96269,-10.92368 -11.99522,-10.43785 m -25.10536,11.10397 c -3.8859,2.27863 -7.47904,4.54751 -7.98431,5.04179 -0.80081,0.78334 9.68688,20.4596 12.36635,23.20141 0.60962,0.62314 4.02143,-0.7761 8.86753,-3.63398 4.33219,-2.55572 7.95301,-4.81299 8.04646,-5.01657 0.093,-0.20266 -0.2897,-0.83828 -0.85026,-1.41249 -0.6351,-0.64914 -3.38657,0.3303 -7.28019,2.59219 -3.44326,1.99989 -6.59955,3.48011 -7.01488,3.28945 -0.41443,-0.19023 -1.52348,-1.78204 -2.46433,-3.53651 -0.94085,-1.75447 -1.81179,-3.37121 -1.93643,-3.59348 -0.12506,-0.22135 2.24898,-1.81198 5.27417,-3.53393 3.50472,-1.99478 5.53865,-3.77453 5.60309,-4.9025 0.0848,-1.48392 -0.46197,-1.49613 -3.39195,-0.0727 -1.92162,0.93344 -4.69351,2.50869 -6.16041,3.49903 -3.23082,2.18432 -3.26256,2.17195 -5.65344,-2.15499 l -1.91423,-3.46445 5.95206,-3.39991 c 6.12681,-3.50015 7.23484,-4.598 6.20459,-6.14814 -0.3288,-0.49423 -3.77659,0.96662 -7.66382,3.24575 m -52.47734,-19.37614 -8.4357,4.91052 7.7538,13.42144 c 4.26508,7.38241 8.18204,13.36825 8.70475,13.3034 2.27806,-0.28129 1.87366,-3.01746 -1.22755,-8.30426 l -3.32943,-5.67653 5.93149,-3.58761 c 6.33809,-3.83338 7.55515,-5.16397 5.56029,-6.07968 -0.68889,-0.31622 -3.83443,0.96317 -6.98948,2.84338 -3.15596,1.87979 -5.95432,3.31855 -6.21879,3.19715 -0.26538,-0.12182 -1.51863,-1.97238 -2.78603,-4.11331 l -2.30344,-3.89179 6.64521,-3.89597 c 3.65458,-2.14385 6.8533,-4.35171 7.10778,-4.9061 1.25529,-2.73465 -2.80022,-1.65179 -10.4129,2.77936 m -20.287972,-5.13161 c -1.397884,1.06052 -1.620378,1.78253 -0.969361,3.13768 0.464994,0.96937 0.546971,1.87185 0.18232,2.00706 -0.364652,0.1352 -1.030845,-0.52051 -1.480896,-1.45771 -0.682303,-1.42123 -2.387455,-0.74602 -10.239852,4.05154 -6.280675,3.83774 -9.538894,6.42211 -9.772913,7.75171 -0.277304,1.57491 -0.510114,1.665 -1.1048,0.42923 -0.578491,-1.20632 -1.083934,-1.20066 -2.193244,0.0198 -0.793361,0.87259 -1.378112,2.11051 -1.299053,2.75088 0.08053,0.64435 -0.320275,0.68813 -0.897493,0.0975 -0.572599,-0.58634 -1.821404,-0.69194 -2.774444,-0.23375 -1.807912,0.8679 -1.927129,0.56671 3.204855,8.15559 1.379009,2.03923 1.793924,2.23079 3.277248,1.51867 0.934551,-0.44907 1.743707,-1.51906 1.799202,-2.37825 0.06338,-0.99861 0.457232,-1.19743 1.088621,-0.55219 1.91741,1.96177 3.564212,-1.49874 3.215858,-6.75644 l -0.348547,-5.25009 1.481074,4.82038 c 1.283688,4.17411 1.719352,4.70639 3.251098,3.97029 1.457787,-0.69963 1.60564,-1.58024 0.837218,-4.99517 -1.15027,-5.11196 0.268201,-6.01119 2.114314,-1.34124 1.21478,3.07296 1.54939,3.33879 3.201846,2.54587 1.563912,-0.75105 1.646819,-1.45901 0.541874,-4.6466 -0.988097,-2.85008 -0.923361,-4.03622 0.264417,-4.9027 1.378231,-1.00573 1.679734,-0.67257 2.498216,2.76754 0.804804,3.37881 1.169969,3.79621 2.68762,3.06684 1.290889,-0.61889 1.719838,-1.44309 1.617923,-3.10515 -0.194819,-3.18794 0.290758,-3.81669 1.308216,-1.69696 0.715899,1.48946 1.217853,1.68797 2.798867,1.10102 1.684934,-0.62397 1.650216,-1.43764 -0.2742,-6.48354 -2.08712,-5.47048 -2.294256,-5.6976 -4.015984,-4.39181 m 4.321555,14.66386 c -1.189577,0.57077 0.195184,3.66894 6.241707,13.96851 6.72535,11.45511 8.02457,13.14081 9.66044,12.53503 1.63538,-0.6071 0.85553,-2.45822 -5.80233,-13.76792 -4.23081,-7.18622 -7.889523,-13.15695 -8.131271,-13.26792 -0.241747,-0.11097 -1.127352,0.1284 -1.968546,0.5323 m -11.146266,8.31294 c -3.267275,0.1639 -15.539819,6.28735 -16.413394,8.19043 -0.414677,0.90337 13.090118,24.77921 14.700623,25.99052 0.43601,0.32778 3.791935,-1.17743 7.458272,-3.3445 5.26449,-3.11255 7.027686,-4.7316 8.388303,-7.70288 2.268669,-4.95427 1.553088,-10.14067 -2.125812,-15.40106 -3.816057,-5.45538 -7.68731,-7.94762 -12.007992,-7.73251 m -4.896654,5.46334 c -3.200185,1.26421 -6.059413,2.82358 -6.353525,3.4643 -0.554015,1.20692 9.82898,19.56754 11.49849,20.3339 0.518938,0.23821 2.824056,-0.73486 5.121671,-2.16141 7.582771,-4.71116 8.300965,-10.99553 2.149144,-18.81489 -3.873976,-4.9241 -5.921413,-5.3897 -12.41578,-2.8219"
     stroke="none"
     fill="#045cac"
     fill-rule="evenodd"
     id="path26370"
     style="fill:#ffffff;fill-opacity:1" />
</svg>
